<svg xmlns="http://www.w3.org/2000/svg" fill="#9D9D9D" viewBox="0 0 1024 1024"><path d="M509.016,687.5l37.635-144.6c-22.5-49.7-58.79-99.711-101.551-143.957-36.444-37.709-71.246-88.092-51.254-139.174,4.734-12.1,16.244-24.342,10.7-37.677-4.452-10.7-16.558-17.162-29.481-17.088-23.228.132-47.216,16.172-61.941,30.234-56.847,54.292-36.838,132.988-20.045,158.638,19.658,30.026,34.719,48.39,48.513,72.426-45.479-15.407-85.843-47.16-96.795-88.951-4.485-17.112-13.574-71.905-47.281-41.909-21.476,19.111-24.022,58.129-20,82.809,7.013,42.988,51.149,76.422,91.162,99.321-18.979-.069-32.733.55-51.3-3.895-17.384-4.162-32.354-14.208-43.066-25.9-6.161-6.728-20.272-19.9-32.146-13.673-11.571,6.064-12.781,27.319-11.967,37.311,2.754,33.815,57.3,98,97.946,57.379,37.863-37.836,112.9-34.955,153.636-1.773,32.434,26.417,42.25,69.035,28.686,105.976-15.334,41.759-72.069,46.664-110.246,43.331,63.145,5.513,88.961-73.786,56.2-113.807-37.706-46.066-106.626-22.068-131.646,21.535C172.476,715.2,281.7,805.373,384.359,805c45.473-.166,92.729-9.322,126.939-33.347C501.221,748.651,500.432,720.484,509.016,687.5Z"/><path d="M638.772,805C588.4,805,519.5,787.878,543.923,694.056L615.24,420.035h-60.1c-26.515,0-36.4-16.386-32.33-32.02,4.266-16.381,22.67-32.762,50.058-32.762H632.1L656.9,259.938c9.109-35,43.614-52.123,73.662-52.123,30.934,0,56.526,17.127,47.416,52.123l-24.806,95.315h95.45c25.629,0,34.627,16.381,30.36,32.762s-20.7,32.02-46.329,32.02H736.319L670.041,674.7c-10.08,38.717-8.441,59.572,30.445,59.572,13.258,0,31.708-2.981,56.048-8.2a31.1,31.1,0,0,1,8.148-.741c19.451,0,32.361,14.893,27.9,32.015C784.833,787.137,726.27,805,638.772,805Z"/><path d="M638.772,805C588.4,805,519.5,787.878,543.923,694.056L615.24,420.035h-60.1c-26.515,0-36.4-16.386-32.33-32.02,4.266-16.381,22.67-32.762,50.058-32.762H632.1L656.9,259.938c9.109-35,43.614-52.123,73.662-52.123,30.934,0,56.526,17.127,47.416,52.123l-24.806,95.315h95.45c25.629,0,34.627,16.381,30.36,32.762s-20.7,32.02-46.329,32.02H736.319L670.041,674.7c-10.08,38.717-8.441,59.572,30.445,59.572,13.258,0,31.708-2.981,56.048-8.2a31.1,31.1,0,0,1,8.148-.741c19.451,0,32.361,14.893,27.9,32.015C784.833,787.137,726.27,805,638.772,805Z"/></svg>
