<svg xmlns="http://www.w3.org/2000/svg" xmlns:xlink="http://www.w3.org/1999/xlink" fill="#9D9D9D" viewBox="0 0 256 256"><style>.st8{fill:none}</style><defs><path id="SVGID_1_" d="M195.2 191.2c.2-.4.4-1 .6-1.6v-22.4c-.8 4.5-1.1 9.5-1.1 15.6 0 4 .3 6.7.5 8.4z"/></defs><clipPath id="SVGID_2_"><use overflow="visible" xlink:href="#SVGID_1_"/></clipPath><path d="M0 0h256v256H0z" clip-path="url(#SVGID_2_)"/><defs><path id="SVGID_3_" d="M178.5 102.2c.1.1.2.1.4.2.3-.2.3-.4.2-.7-.1-.3-.3-.6-.4-.9-.2-.4-.5-.7-.8-1h-.5c0 .2-.1.3 0 .4 0 .2.1.4.2.6.2.5.5 1 .9 1.4z"/></defs><clipPath id="SVGID_4_"><use overflow="visible" xlink:href="#SVGID_3_"/></clipPath><path d="M0 0h256v256H0z" clip-path="url(#SVGID_4_)"/><defs><path id="SVGID_5_" d="M150.9 109.1c.5-.7 1.2-1 2-1.4-.2-.1-.3-.1-.4-.1-.8-.2-1.5-.7-1.9-1.5-.2-.4-.3-.8-.4-1.1 0-.1-.1-.1-.1-.3-.1.3-.2.6-.2.8-.3 1.2-1.1 2-2.3 2.3 0 0-.1 0-.2.1.3.1.4.1.6.2.6.2 1.1.5 1.5 1.1.3.4.5.9.6 1.4.1.3.2.5.2.8h.1c0-.9.1-1.6.5-2.3z"/></defs><clipPath id="SVGID_6_"><use overflow="visible" xlink:href="#SVGID_5_"/></clipPath><path d="M0 0h256v256H0z" clip-path="url(#SVGID_6_)"/><defs><path id="SVGID_7_" d="M212.3 196.1v-87.8c0-22.2-5.8-34.3-16.3-34.3-2.3 0-4.5.7-6.4 2h-13.8V36.9h-12.5V76h-6c-1.8-1.3-3.9-2-6.1-2-11.5 0-17.3 12.1-17.3 36 0 15 2.7 27.9 8.2 39.5l4.9 10.1c5.9 12.4 7.2 17.3 7.2 26.2 0 7.5-1.9 12.4-4.8 12.4-3 0-4.8-4.6-4.8-12.4 0-1.4 0-2.3.1-4.6l-12.1 1.7c-.1 1.4-.1 2-.1 3.5 0 21.3 6.5 34.8 16.8 34.8 6.7 0 11.9-6.1 14.8-16.4 1.8 10.8 6.3 16.4 13.2 16.4 2 0 3.6-.6 7.2-2 1.3 1.3 2.8 2 4.5 2 4.2 0 7.6-4.3 10.7-13.5.1 4.3.4 8.6.9 11.5h13c-1.1-7.2-1.3-11-1.3-23.1zm-42.6-106c.1.2 0 .5 0 .7.3.6.5.8 1 .8.3-.5.2-1.1.2-1.7-.1-.2-.3-.4-.4-.6.2-.6.2-.6.7-.7.6.2.6.4.3 1 .3.6.4 1.4 1.2 1.5.4-.2.5-.5.6-.9s.1-.8.1-1.2c-.1-.3-.3-.5-.4-.7 0-.1.1-.3.1-.4.1-.2.4-.4.6-.3.3.1.5.3.5.6v.3c-.1.3-.1.6 0 .9 0 .3.1.6.2.8.1.3.3.5.6.6.3 0 .5-.2.6-.4.2-.4.3-.7.4-1.1 0-.3-.2-.6.1-.8.3-.3.5-.2.8-.1.3.3.2.6.1.9-.3.6-.2 1.1-.1 1.7 0 .1.1.2.2.3.3 0 .4-.1.5-.3.2-.3.4-.6.4-1v-.1c.1-.2.2-.4.4-.4s.4.1.5.3c0 .1 0 .2.1.2-.1.4-.2.7-.3 1s-.3.7-.5.9c-.2.3-.3.6-.4.9-.1.3-.2.7-.5.9-2.3-.6-4.6-.8-7 .1-.4-.5-.7-.9-.7-1.6 0-.1 0-.3-.1-.4-.1-.3-.3-.7-.4-1-.2-.1-.3-.3-.5-.4v-.5c.3-.1.6-.1 1.1.2zm-9.4 5.6c0 .2.1.3.1.5s.1.4.1.6c.2.8.6 1.5 1.2 2.1.3.3.7.6 1.2.7.2.1.4.1.6.2-1.9.2-3 1.2-3.3 3.1-.2-.8-.5-1.5-1-2.1-.6-.6-1.3-.9-2.2-1.1 2.1-.6 3-2.1 3.3-4zm26 35.7c-.1.9-.3 1.8-.5 2.7-.4 1.5-1.1 2.8-2 4-.5.6-1 1.3-1.6 1.8-.8.8-1.6 1.5-2.5 2.2l-3 2.1c-.8.5-1.5 1.1-2.1 1.9l-.1.1c-.1-.1-.2-.2-.4-.3-.5-.5-1-1.1-1.6-1.6-1.4-1.3-2.9-2.4-4.5-3.3-1.9-1.1-4-1.9-6-2.9l-5.7-2.7c-1.8-.9-3.5-1.9-5.1-2.9-1-.7-1.9-1.4-2.8-2.2-.5-.5-1.1-1-1.6-1.5-.7-.7-1.3-1.4-1.7-2.3-.1-.3-.2-.6-.2-.9 0-.2.1-.3.3-.5.5-.1.9.1 1.3.4l.9.6c.2.1.5.2.7.3.2.1.4.1.5-.1 0-.3-.2-.4-.4-.5-.5-.3-1-.7-1.6-.9-1.4-.7-2.5-1.7-3.5-3-.7-.9-1.3-1.7-1.8-2.7-.4-.8-.7-1.6-.7-2.5-.1-1.1 0-2.1.4-3.1.1-.3.3-.6.4-.9 1-.6 2.1-.5 2.9.1l2.4 1.8c.2.1.4.3.6.5h.5c.1-.1.1-.2.2-.3 0-.3-.2-.4-.4-.5-.5-.3-.9-.7-1.4-1-.7-.5-1.4-1.1-2-1.8-1.1-1.4-1.8-2.9-2.1-4.6-.2-1.4-.1-2.8.3-4.2.3-1 .7-1.9 1.3-2.7.6-.7 1.2-1.2 2.1-1.5 1.2-.3 2.3-.1 3.3.6.5.4.9.9 1.3 1.3.9 1 1.7 2.1 2.6 3.1 1 1.2 2.2 2.1 3.5 3 2.2 1.5 4.6 2.9 6.9 4.3 1.4.8 2.9 1.7 4.3 2.6 2 1.2 3.7 2.8 5.2 4.6 1.3 1.7 2.4 3.5 3.1 5.5.5 1.4.8 2.8 1 4.2.1 1.2.1 2.4 0 3.6-.2 1.6-.6 3.2-1.2 4.7-.3.8-.8 1.6-1.1 2.3-.1.3-.3.4-.7.5-.1-.1-.3-.2-.4-.3-.3-.2-.5-.5-.8-.8-1.1-1-2.2-1.9-3.5-2.6-1.4-.8-2.8-1.3-4.2-1.9-1.3-.5-2.7-1-4-1.7-1.5-.7-2.9-1.6-4.1-2.7-1.2-1.2-2-2.5-2.2-4.2-.1-1.9.2-3.8 1.3-5.4 1.2-1.7 2.9-2.6 5-2.6 1.4 0 2.7.2 4 .7 2 .8 3.2 2.3 3.7 4.3.1.4.2.9.2 1.4v.3c-.3-.2-.5-.4-.8-.6-1.4-.7-2.9-.3-3.7 1.1-1 1.8-.8 3.7.4 5.3.9 1.2 2 2.1 3.3 2.8.6.3 1.1.6 1.7.9.6.4 1.2.8 1.9 1.2.7-.4 1.2-.9 1.6-1.6.5-.8.7-1.7.9-2.6.1-.8.1-1.6.1-2.4-.1-1.7-.5-3.4-1.2-4.9-.8-1.6-1.8-3-3-4.3-1.4-1.4-2.9-2.6-4.7-3.5-.9-.4-1.7-.9-2.6-1.2-1.2-.4-2.4-.7-3.6-.9-1-.1-2-.1-3 .1-1.5.3-2.7 1-3.7 2.2-1.1 1.3-1.7 2.8-2 4.4-.1.8-.2 1.5-.1 2.3.1 1.5.6 3 1.2 4.4.5 1.1 1.1 2.1 1.9 3.1 1.5 1.7 3.2 3.1 5.1 4.3 1.6 1 3.4 1.7 5.1 2.5 1.8.8 3.6 1.7 5.3 2.6 1.1.6 2.1 1.2 3.1 2 .8.5 1.5 1.1 2.1 1.8l.3.3c.1 0 .1-.1.2-.1 1.2-1.1 2.3-2.3 3.2-3.7s1.6-3 1.9-4.7c.1-.6.2-1.3.2-2 0-.5.1-1 .1-1.4 0-.8-.1-1.6-.1-2.5 0-.4-.1-.7-.1-1.1-.2-1.6-.6-3.1-1.2-4.6-.7-1.9-1.7-3.7-3-5.3-.9-1.1-1.9-2.2-2.9-3.2s-2-2-3.1-3c-1-1-1.8-2.2-2.4-3.5-.4-1-.7-2-.8-3.1 0-.5-.1-1-.1-1.4.1-2 .6-3.9 1.8-5.6 1.1-1.5 2.5-2.4 4.3-2.7.8-.1 1.6-.1 2.4-.1.8.1 1.6.2 2.3.5 1.6.6 2.8 1.7 3.6 3.1.7 1.2.7 2.5 0 3.7-.1.1-.1.2-.2.4.1.5.2 1.1.3 1.7.1.4.3.8.5 1.2.2.2.3.5.4.7.1.3.1.6-.1.8-.4.1-.6-.1-.8-.3-1.3-1-2.3-2.2-3.1-3.7-.3-.5-.6-.9-.9-1.4-.8-1.1-1.9-1.4-3.1-1.3-1.2.2-2.2.7-2.9 1.8-.6.9-.9 2-.7 3.1.3 1.9 1.1 3.4 2.4 4.8.7.8 1.6 1.5 2.4 2.2 1.2 1 2.4 2 3.6 3.1.8.7 1.5 1.4 2.2 2.1 1.5 1.6 2.9 3.4 3.9 5.4.7 1.5 1.3 3.1 1.6 4.8 0 1.4 0 2.8-.1 4.1zm1-10c-.1 0-.2-.1-.4-.1.6-.3 1.2-.5 1.6-1 .4-.5.5-1.1.7-1.7.2.6.3 1.2.7 1.7s1 .7 1.6.8c-.7.3-1.3.6-1.6 1.1-.4.5-.5 1.2-.7 1.8 0-.2-.1-.3-.2-.5-.2-.4-.3-.8-.5-1.2-.2-.5-.7-.8-1.2-.9zm12.5 69c-1.7 5.2-3.3 7.5-5.2 7.5-2.6 0-3.9-5.2-3.9-15 0-16.4 2.3-25.9 9.1-37.2v44.7zm4.8-74.4c-.1.8-.3 1.6-.5 2.4-.4 1.4-1.1 2.8-2.1 4-.9 1.1-2 2.1-3.2 2.9-.2.2-.4.3-.6.5-.2.2-.3.4-.1.7.2.1.4 0 .5-.1.3-.2.6-.4 1-.6.2-.1.5-.2.7-.4.1.1.2.1.3.1s.1.1.2.2c0 .5-.2 1-.5 1.4-.9 1.2-2 2.3-3.1 3.3-2 1.7-4.2 3.1-6.4 4.4-.5.3-1.1.7-1.7 1.1.1-.3.3-.4.4-.6 1.2-1.3 2.3-2.6 3.3-4 .8-1 1.5-2.1 2-3.2.5-1 1-2.1 1.2-3.2.1-.5.2-1.1.2-1.6.1-1.1.2-2.2.1-3.2-.1-1.5-.3-2.9-1-4.2-.8-1.5-2-2.5-3.5-3.2-.9-.4-1.9-.6-2.9-.6-.9 0-1.8.3-2.6.6-.9.4-1.8.9-2.7 1.4-.2.1-.4.3-.7.3-.1-.1-.2-.2-.2-.3.1-.4.2-.6.5-.8.3-.2.5-.4.8-.5 1.6-1.1 3.2-2.3 4.7-3.5.9-.7 1.6-1.6 2.4-2.4 1-1.1 1.9-2.2 2.7-3.5.5-.8 1-1.6 1.4-2.4.3-.6.7-1.3 1.2-1.8.3-.3.6-.5 1-.7.8-.3 1.6-.3 2.3.2 1.1.7 1.9 1.6 2.5 2.7s.9 2.2 1 3.4c0 .5.1 1 .1 1.5 0 1.3-.4 2.4-1 3.5-.5.9-1.2 1.8-1.9 2.6l-.7.7c-.1.1-.2.2-.2.4.3.5.6.7 1.1.3.4-.3.7-.6 1.1-.7.7-.3 1.4-.4 2.1-.2.6.2 1 .6 1.1 1.2-.2.7-.2 1.3-.3 1.9z"/></defs><clipPath id="SVGID_8_"><use overflow="visible" xlink:href="#SVGID_7_"/></clipPath><path d="M0 0h256v256H0z" clip-path="url(#SVGID_8_)"/><defs><path id="SVGID_9_" d="M120.1 219.2h12.6V76h-12.6z"/></defs><clipPath id="SVGID_10_"><use overflow="visible" xlink:href="#SVGID_9_"/></clipPath><path d="M0 0h256v256H0z" clip-path="url(#SVGID_10_)"/><defs><path id="SVGID_11_" d="M120.1 36.9h12.5v25.6h-12.5z"/></defs><clipPath id="SVGID_12_"><use overflow="visible" xlink:href="#SVGID_11_"/></clipPath><path d="M0 0h256v256H0z" clip-path="url(#SVGID_12_)"/><defs><path id="SVGID_13_" d="M103.6 154.1l-6.3-78H88l-6 76.6L76.2 76h-20V36.9H43.7v154.9c0 19.3 4.9 29.4 14.1 29.4 2 0 3.6-.6 7.2-2v-23l-2.3.3c-4.5 0-6.5-4-6.5-13.2V99.1h10.6l9.4 120.1h9.5l7.1-82.1 6.8 82.1h9.6L120.1 76h-10.9l-5.6 78.1z"/></defs><clipPath id="SVGID_14_"><use overflow="visible" xlink:href="#SVGID_13_"/></clipPath><path d="M0 0h256v256H0z" clip-path="url(#SVGID_14_)"/><g><defs><path id="SVGID_15_" d="M221.5 217.9c-1.1-6.7-1.2-10.4-1.2-21.8v-87.8C220.3 81 211.7 66 196 66c-3 0-5.9.7-8.5 2h-3.6V28.9h-28.5v37.6c-1.3-.3-2.7-.5-4.2-.5-3.9 0-7.5.9-10.6 2.7V28.9h-28.5V68H64.2V28.9H35.7v162.9c0 14 2.9 37.4 22.1 37.4 3.5 0 6.2-1 10.2-2.6l.8-.3.1.9h71.9v-.2c2.7 1.4 5.6 2.1 8.8 2.1 5.2 0 10.1-2.2 14-6.2 4.4 5 9.8 6.2 14 6.2 2.3 0 4.2-.4 6.3-1.1 1.7.7 3.5 1.1 5.4 1.1 2.6 0 5-.7 7.3-2H223l-1.5-9.2zm-80.8-53.2c1.6 3.4 2.8 6.1 3.6 8.4l-3.6.5v-8.9zM116.1 32.9h20.5v33.6h-20.5V32.9zm19.4 190.3h-18.6l-.8-42.4-4 42.4H95.8l-3.2-38.4-3.3 38.4H72.5l-9.4-120.1h-2.9v80.1c0 3.4.3 9 2.3 9.2l6.5-.8v30.3l-2.5 1c-3.8 1.5-5.9 2.3-8.7 2.3-8.3 0-18.1-5.8-18.1-33.4V32.9h20.5V72h19.7l2.1 28.5L84.3 72h16.6l2.4 29.7 2.1-29.7h30.8l4.4 1.4c2.9-2.3 6.5-3.4 10.6-3.4 2.6 0 5 .7 7.3 2h.9V32.9h20.5V72h8.6c2.3-1.3 4.8-2 7.5-2 17.6 0 20.3 24 20.3 38.3v87.8c0 11.7.1 15.4 1.2 22.4l.7 4.6h-21.1l-.2-1.6c-2.1 2.2-4.6 3.6-7.8 3.6-1.8 0-3.6-.5-5.1-1.5-2.5 1-4.3 1.5-6.5 1.5-4.5 0-10-1.8-13.7-9-3.7 5.8-8.6 9-14.2 9-3.3 0-6.3-1-8.8-2.8l-5.3.9zm1.2-44.9l12.5-1.8-.3 4.9c-.1 2.2-.1 3-.1 4.4 0 3.3.3 5.5.7 6.9.4-1.4.8-3.6.8-6.9 0-7.9-.9-12.1-6.8-24.5l-2.8-5.7-4 .9m-71 31.5l-1.2.2c-.2-1-.3-2.6-.3-5v-14.9l1.5 19.7z"/></defs><clipPath id="SVGID_16_"><use overflow="visible" xlink:href="#SVGID_15_"/></clipPath><path d="M0 0h256v256H0z" clip-path="url(#SVGID_16_)"/></g><path d="M160.3 102.9c.3-1.9 1.4-2.9 3.3-3.1-.2-.1-.4-.2-.6-.2-.5-.2-.8-.4-1.2-.7-.6-.6-1-1.3-1.2-2.1-.1-.2-.1-.4-.1-.6s-.1-.3-.1-.5c-.3 1.9-1.2 3.4-3.3 4.1.9.2 1.6.5 2.2 1.1.5.5.8 1.2 1 2zm8.8-11.7c.1.3.3.6.4 1 .1.1.1.3.1.4 0 .6.3 1.1.7 1.6 2.3-.9 4.6-.7 7-.1.3-.3.4-.6.5-.9s.2-.6.4-.9.3-.6.5-.9c.1-.3.2-.6.3-1 0 0 0-.1-.1-.2-.1-.2-.3-.3-.5-.3s-.4.2-.4.4v.1c0 .4-.2.7-.4 1-.1.1-.2.3-.5.3-.1-.1-.2-.2-.2-.3 0-.6-.1-1.1.1-1.7.1-.3.2-.6-.1-.9-.3-.2-.6-.2-.8.1-.2.2-.1.5-.1.8-.1.3-.3.7-.4 1.1-.1.2-.3.4-.6.4-.3-.1-.5-.3-.6-.6-.1-.3-.1-.6-.2-.8 0-.3-.1-.6 0-.9v-.3c0-.3-.2-.5-.5-.6-.2 0-.5.1-.6.3-.1.1-.1.2-.1.4.1.2.2.4.4.7 0 .4 0 .8-.1 1.2-.1.4-.2.7-.6.9-.9-.2-.9-.9-1.2-1.5.3-.6.2-.9-.3-1-.5.2-.5.2-.7.7.1.2.2.3.4.6 0 .5.1 1.1-.2 1.7-.5 0-.8-.2-1-.8.1-.2.2-.5 0-.7-.5-.3-.7-.3-1.1.2v.5c.1-.3.3-.2.5 0zm20.1 32.8c.2-.6.3-1.3.7-1.8.4-.6 1-.8 1.6-1.1-.7-.2-1.2-.4-1.6-.8-.4-.5-.5-1-.7-1.7-.2.7-.3 1.2-.7 1.7s-.9.7-1.6 1c.2.1.3.1.4.1.5.2 1 .5 1.3 1 .2.4.3.8.5 1.2 0 .1.1.3.1.4z" class="st8"/><path d="M184.5 122.5c-1-2-2.3-3.8-3.9-5.4-.7-.7-1.4-1.4-2.2-2.1-1.2-1-2.4-2.1-3.6-3.1-.8-.7-1.7-1.4-2.4-2.2-1.3-1.3-2.1-2.9-2.4-4.8-.2-1.1.1-2.1.7-3.1.7-1.1 1.7-1.6 2.9-1.8 1.3-.2 2.4.2 3.1 1.3.3.4.6.9.9 1.4.8 1.5 1.8 2.7 3.1 3.7.2.2.5.4.8.3.2-.3.2-.5.1-.8-.1-.3-.3-.5-.4-.7-.3-.4-.5-.7-.5-1.2-.1-.6-.2-1.2-.3-1.7.1-.2.2-.3.2-.4.7-1.2.7-2.5 0-3.7-.8-1.5-2-2.5-3.6-3.1-.7-.3-1.5-.4-2.3-.5s-1.6-.1-2.4.1c-1.8.3-3.2 1.2-4.3 2.7-1.2 1.7-1.7 3.6-1.8 5.6 0 .5 0 1 .1 1.4.1 1.1.4 2.1.8 3.1.6 1.3 1.4 2.5 2.4 3.5s2 2 3.1 3c1 1 2 2 2.9 3.2 1.3 1.6 2.3 3.4 3 5.3.6 1.5 1 3 1.2 4.6 0 .4.1.7.1 1.1.1.8.1 1.6.1 2.5 0 .5 0 1-.1 1.4-.1.7-.1 1.3-.2 2-.3 1.7-1 3.3-1.9 4.7s-2 2.6-3.2 3.7c0 0-.1.1-.2.1l-.3-.3c-.6-.7-1.4-1.3-2.1-1.8-1-.7-2-1.4-3.1-2-1.7-1-3.5-1.8-5.3-2.6-1.7-.8-3.5-1.5-5.1-2.5-1.9-1.2-3.7-2.5-5.1-4.3-.8-.9-1.4-2-1.9-3.1-.7-1.4-1.1-2.8-1.2-4.4-.1-.8-.1-1.5.1-2.3.3-1.6 1-3.1 2-4.4 1-1.2 2.2-1.9 3.7-2.2 1-.2 2-.2 3-.1 1.3.2 2.5.5 3.6.9.9.3 1.8.8 2.6 1.2 1.8.9 3.3 2.1 4.7 3.5 1.2 1.3 2.2 2.7 3 4.3.8 1.6 1.1 3.2 1.2 4.9.1.8.1 1.6-.1 2.4-.1.9-.4 1.8-.9 2.6-.4.7-1 1.2-1.6 1.6-.7-.4-1.3-.8-1.9-1.2-.6-.3-1.1-.6-1.7-.9-1.3-.7-2.4-1.6-3.3-2.8-1.2-1.6-1.4-3.5-.4-5.3.8-1.4 2.3-1.8 3.7-1.1.3.2.5.4.8.6v-.3c-.1-.5-.1-.9-.2-1.4-.5-2.1-1.7-3.5-3.7-4.3-1.3-.5-2.6-.7-4-.7-2.1 0-3.8.9-5 2.6-1.1 1.6-1.5 3.4-1.3 5.4.1 1.7 1 3.1 2.2 4.2 1.2 1.2 2.6 2 4.1 2.7 1.3.6 2.6 1.2 4 1.7 1.5.5 2.9 1.1 4.2 1.9 1.3.7 2.5 1.6 3.5 2.6l.8.8c.1.1.3.2.4.3.3-.1.6-.3.7-.5.4-.8.8-1.5 1.1-2.3.6-1.5 1-3.1 1.2-4.7.1-1.2.2-2.4 0-3.6-.1-1.4-.5-2.9-1-4.2-.8-2-1.8-3.8-3.1-5.5-1.5-1.8-3.2-3.4-5.2-4.6-1.4-.9-2.8-1.7-4.3-2.6-2.3-1.4-4.6-2.8-6.9-4.3-1.3-.9-2.4-1.8-3.5-3-.9-1-1.7-2.1-2.6-3.1-.4-.5-.8-1-1.3-1.3-1-.8-2.1-1-3.3-.6-.9.2-1.5.8-2.1 1.5-.6.8-1 1.7-1.3 2.7-.4 1.4-.6 2.7-.3 4.2.3 1.7 1 3.2 2.1 4.6.6.7 1.3 1.3 2 1.8.5.3.9.7 1.4 1 .2.1.3.3.4.5-.1.1-.1.2-.2.3h-.5c-.2-.2-.4-.3-.6-.5l-2.4-1.8c-.8-.6-1.9-.8-2.9-.1-.1.2-.3.5-.4.9-.4 1-.5 2-.4 3.1.1.9.3 1.7.7 2.5.5.9 1.1 1.8 1.8 2.7.9 1.2 2 2.3 3.5 3 .5.3 1.1.6 1.6.9.2.1.4.2.4.5-.1.2-.3.2-.5.1s-.5-.2-.7-.3l-.9-.6c-.4-.2-.8-.5-1.3-.4-.2.1-.3.3-.3.5 0 .3.1.6.2.9.4.9 1.1 1.6 1.7 2.3.5.5 1 1 1.6 1.5.9.8 1.8 1.5 2.8 2.2 1.6 1.1 3.3 2.1 5.1 2.9l5.7 2.7c2 .9 4 1.8 6 2.9 1.7.9 3.1 2 4.5 3.3.5.5 1.1 1 1.6 1.6.1.1.2.2.4.3l.1-.1c.6-.7 1.3-1.3 2.1-1.9l3-2.1c.9-.6 1.7-1.4 2.5-2.2.6-.6 1.1-1.2 1.6-1.8.9-1.2 1.6-2.6 2-4 .2-.9.4-1.7.5-2.7.1-1.4.1-2.8-.2-4.1 0-1.6-.6-3.2-1.3-4.8zm-7.2-22.6h.5c.4.3.7.6.8 1 .2.3.3.6.4.9.1.2.1.4-.2.7-.1-.1-.3-.1-.4-.2-.4-.4-.7-.9-1-1.3-.1-.2-.2-.4-.2-.6 0-.2.1-.3.1-.5zm-27.4 10.6c-.1-.5-.3-.9-.6-1.4-.4-.5-.8-.9-1.5-1.1-.2 0-.3-.1-.6-.2.1 0 .2-.1.2-.1 1.2-.3 2-1.1 2.3-2.3.1-.2.1-.5.2-.8.1.1.1.2.1.3.1.4.2.8.4 1.1.4.8 1.1 1.2 1.9 1.5.1 0 .2.1.4.1-.8.3-1.5.7-2 1.4-.4.7-.6 1.4-.7 2.2h-.1c.1-.2.1-.4 0-.7z" class="st8"/><path d="M203.4 113c-.7-.2-1.4-.1-2.1.2-.4.2-.8.5-1.1.7-.4.3-.8.2-1.1-.3.1-.1.1-.3.2-.4.2-.3.5-.5.7-.7.7-.8 1.4-1.6 1.9-2.6.6-1.1 1-2.3 1-3.5 0-.5 0-1-.1-1.5-.1-1.2-.4-2.3-1-3.4s-1.4-2-2.5-2.7c-.7-.5-1.5-.5-2.3-.2-.4.2-.7.4-1 .7-.5.5-.9 1.1-1.2 1.8-.4.8-.9 1.7-1.4 2.4-.8 1.2-1.7 2.4-2.7 3.5-.8.8-1.5 1.6-2.4 2.4-1.5 1.3-3.1 2.5-4.7 3.5-.3.2-.5.4-.8.5-.3.2-.4.4-.5.8.1.1.2.2.2.3.3 0 .5-.2.7-.3.8-.6 1.7-1.1 2.7-1.4.8-.3 1.7-.6 2.6-.6 1-.1 2 .2 2.9.6 1.5.7 2.7 1.7 3.5 3.2.7 1.3 1 2.7 1 4.2 0 1.1 0 2.2-.1 3.2-.1.5-.1 1.1-.2 1.6-.2 1.1-.7 2.2-1.2 3.2-.6 1.1-1.3 2.2-2 3.2-1 1.4-2.1 2.7-3.3 4-.1.2-.3.3-.4.6.6-.4 1.2-.7 1.7-1.1 2.2-1.4 4.4-2.7 6.4-4.4 1.2-1 2.2-2.1 3.1-3.3.3-.4.5-.9.5-1.4l-.2-.2c-.1 0-.1-.1-.3-.1-.2.1-.5.2-.7.4-.3.2-.6.4-1 .6-.1.1-.3.2-.5.1-.2-.3-.1-.5.1-.7.2-.2.4-.4.6-.5 1.2-.8 2.3-1.8 3.2-2.9.9-1.2 1.6-2.5 2.1-4 .2-.8.4-1.6.5-2.4.1-.6.1-1.2 0-1.8.2-.7-.2-1.1-.8-1.3zm-8.8 84.8c1.9 0 3.5-2.3 5.2-7.5v-44.6c-6.8 11.2-9.1 20.7-9.1 37.2 0 9.8 1.3 14.9 3.9 14.9z" class="st8"/></svg>
