<?xml version="1.0" encoding="utf-8"?>
<!-- Generator: Adobe Illustrator 23.0.1, SVG Export Plug-In . SVG Version: 6.00 Build 0)  -->
<svg version="1.1" id="レイヤー_1" xmlns="http://www.w3.org/2000/svg" xmlns:xlink="http://www.w3.org/1999/xlink" x="0px"
	 y="0px" viewBox="0 0 256 256" style="enable-background:new 0 0 256 256;" xml:space="preserve">
<style type="text/css">
	.st0{clip-path:url(#SVGID_2_);fill:url(#SVGID_3_);}
	.st1{clip-path:url(#SVGID_5_);fill:url(#SVGID_6_);}
	.st2{clip-path:url(#SVGID_8_);fill:url(#SVGID_9_);}
	.st3{clip-path:url(#SVGID_11_);fill:url(#SVGID_12_);}
	.st4{clip-path:url(#SVGID_14_);fill:url(#SVGID_15_);}
	.st5{clip-path:url(#SVGID_17_);fill:url(#SVGID_18_);}
	.st6{clip-path:url(#SVGID_20_);fill:url(#SVGID_21_);}
	.st7{clip-path:url(#SVGID_23_);fill:url(#SVGID_24_);}
	.st8{fill:url(#SVGID_25_);}
	.st9{fill:none;}
	.st10{clip-path:url(#SVGID_27_);fill:#FFFFFF;}
	.st11{clip-path:url(#SVGID_29_);fill:url(#SVGID_30_);}
	.st12{clip-path:url(#SVGID_32_);fill:url(#SVGID_33_);}
	.st13{clip-path:url(#SVGID_35_);fill:#FFFFFF;}
	.st14{clip-path:url(#SVGID_37_);fill:#FFFFFF;}
	.st15{clip-path:url(#SVGID_39_);fill:#FFFFFF;}
	.st16{clip-path:url(#SVGID_41_);fill:#FFFFFF;}
	.st17{clip-path:url(#SVGID_43_);fill:#FFFFFF;}
	.st18{fill:#FFFFFF;}
</style>
<g>
	<defs>
		<path id="SVGID_1_" d="M195.2,191.2c0.2-0.4,0.4-1,0.6-1.6v-22.4c-0.8,4.5-1.1,9.5-1.1,15.6C194.7,186.8,195,189.5,195.2,191.2z"
			/>
	</defs>
	<clipPath id="SVGID_2_">
		<use xlink:href="#SVGID_1_"  style="overflow:visible;"/>
	</clipPath>
	<linearGradient id="SVGID_3_" gradientUnits="userSpaceOnUse" x1="87.4256" y1="-23.4256" x2="168.5744" y2="279.4256">
		<stop  offset="0" style="stop-color:#6DCCE1"/>
		<stop  offset="1" style="stop-color:#008AAC"/>
	</linearGradient>
	<rect class="st0" width="256" height="256"/>
</g>
<g>
	<defs>
		<path id="SVGID_4_" d="M178.5,102.2c0.1,0.1,0.2,0.1,0.4,0.2c0.3-0.2,0.3-0.4,0.2-0.7c-0.1-0.3-0.3-0.6-0.4-0.9
			c-0.2-0.4-0.5-0.7-0.8-1c-0.1,0-0.3,0-0.5,0c0,0.2-0.1,0.3,0,0.4c0,0.2,0.1,0.4,0.2,0.6C177.8,101.3,178.1,101.8,178.5,102.2z"/>
	</defs>
	<clipPath id="SVGID_5_">
		<use xlink:href="#SVGID_4_"  style="overflow:visible;"/>
	</clipPath>
	<linearGradient id="SVGID_6_" gradientUnits="userSpaceOnUse" x1="87.4256" y1="-23.4256" x2="168.5744" y2="279.4256">
		<stop  offset="0" style="stop-color:#6DCCE1"/>
		<stop  offset="1" style="stop-color:#008AAC"/>
	</linearGradient>
	<rect class="st1" width="256" height="256"/>
</g>
<g>
	<defs>
		<path id="SVGID_7_" d="M150.9,109.1c0.5-0.7,1.2-1,2-1.4c-0.2-0.1-0.3-0.1-0.4-0.1c-0.8-0.2-1.5-0.7-1.9-1.5
			c-0.2-0.4-0.3-0.8-0.4-1.1c0-0.1-0.1-0.1-0.1-0.3c-0.1,0.3-0.2,0.6-0.2,0.8c-0.3,1.2-1.1,2-2.3,2.3c0,0-0.1,0-0.2,0.1
			c0.3,0.1,0.4,0.1,0.6,0.2c0.6,0.2,1.1,0.5,1.5,1.1c0.3,0.4,0.5,0.9,0.6,1.4c0.1,0.3,0.2,0.5,0.2,0.8c0,0,0.1,0,0.1,0
			C150.4,110.5,150.5,109.8,150.9,109.1z"/>
	</defs>
	<clipPath id="SVGID_8_">
		<use xlink:href="#SVGID_7_"  style="overflow:visible;"/>
	</clipPath>
	<linearGradient id="SVGID_9_" gradientUnits="userSpaceOnUse" x1="87.4256" y1="-23.4256" x2="168.5744" y2="279.4256">
		<stop  offset="0" style="stop-color:#6DCCE1"/>
		<stop  offset="1" style="stop-color:#008AAC"/>
	</linearGradient>
	<rect class="st2" width="256" height="256"/>
</g>
<g>
	<defs>
		<path id="SVGID_10_" d="M212.3,196.1v-87.8c0-22.2-5.8-34.3-16.3-34.3c-2.3,0-4.5,0.7-6.4,2l0,0h-13.8V36.9h-12.5V76h-6v0
			c-1.8-1.3-3.9-2-6.1-2c-11.5,0-17.3,12.1-17.3,36c0,15,2.7,27.9,8.2,39.5l4.9,10.1c5.9,12.4,7.2,17.3,7.2,26.2
			c0,7.5-1.9,12.4-4.8,12.4c-3,0-4.8-4.6-4.8-12.4c0-1.4,0-2.3,0.1-4.6l-12.1,1.7c-0.1,1.4-0.1,2-0.1,3.5c0,21.3,6.5,34.8,16.8,34.8
			c6.7,0,11.9-6.1,14.8-16.4c1.8,10.8,6.3,16.4,13.2,16.4c2,0,3.6-0.6,7.2-2v0c1.3,1.3,2.8,2,4.5,2c4.2,0,7.6-4.3,10.7-13.5
			c0.1,4.3,0.4,8.6,0.9,11.5h13C212.5,212,212.3,208.2,212.3,196.1z M169.7,90.1c0.1,0.2,0,0.5,0,0.7c0.3,0.6,0.5,0.8,1,0.8
			c0.3-0.5,0.2-1.1,0.2-1.7c-0.1-0.2-0.3-0.4-0.4-0.6c0.2-0.6,0.2-0.6,0.7-0.7c0.6,0.2,0.6,0.4,0.3,1c0.3,0.6,0.4,1.4,1.2,1.5
			c0.4-0.2,0.5-0.5,0.6-0.9c0.1-0.4,0.1-0.8,0.1-1.2c-0.1-0.3-0.3-0.5-0.4-0.7c0-0.1,0.1-0.3,0.1-0.4c0.1-0.2,0.4-0.4,0.6-0.3
			c0.3,0.1,0.5,0.3,0.5,0.6c0,0.1,0,0.2,0,0.3c-0.1,0.3-0.1,0.6,0,0.9c0,0.3,0.1,0.6,0.2,0.8c0.1,0.3,0.3,0.5,0.6,0.6
			c0.3,0,0.5-0.2,0.6-0.4c0.2-0.4,0.3-0.7,0.4-1.1c0-0.3-0.2-0.6,0.1-0.8c0.3-0.3,0.5-0.2,0.8-0.1c0.3,0.3,0.2,0.6,0.1,0.9
			c-0.3,0.6-0.2,1.1-0.1,1.7c0,0.1,0.1,0.2,0.2,0.3c0.3,0,0.4-0.1,0.5-0.3c0.2-0.3,0.4-0.6,0.4-1c0,0,0-0.1,0-0.1
			c0.1-0.2,0.2-0.4,0.4-0.4c0.2,0,0.4,0.1,0.5,0.3c0,0.1,0,0.2,0.1,0.2c-0.1,0.4-0.2,0.7-0.3,1c-0.1,0.3-0.3,0.7-0.5,0.9
			c-0.2,0.3-0.3,0.6-0.4,0.9c-0.1,0.3-0.2,0.7-0.5,0.9c-2.3-0.6-4.6-0.8-7,0.1c-0.4-0.5-0.7-0.9-0.7-1.6c0-0.1,0-0.3-0.1-0.4
			c-0.1-0.3-0.3-0.7-0.4-1c-0.2-0.1-0.3-0.3-0.5-0.4c0-0.2,0-0.3,0-0.5C168.9,89.8,169.2,89.8,169.7,90.1z M160.3,95.7
			c0,0.2,0.1,0.3,0.1,0.5c0,0.2,0.1,0.4,0.1,0.6c0.2,0.8,0.6,1.5,1.2,2.1c0.3,0.3,0.7,0.6,1.2,0.7c0.2,0.1,0.4,0.1,0.6,0.2
			c-1.9,0.2-3,1.2-3.3,3.1c-0.2-0.8-0.5-1.5-1-2.1c-0.6-0.6-1.3-0.9-2.2-1.1C159.1,99.1,160,97.6,160.3,95.7z M186.3,131.4
			c-0.1,0.9-0.3,1.8-0.5,2.7c-0.4,1.5-1.1,2.8-2,4c-0.5,0.6-1,1.3-1.6,1.8c-0.8,0.8-1.6,1.5-2.5,2.2c-1,0.7-2,1.4-3,2.1
			c-0.8,0.5-1.5,1.1-2.1,1.9c0,0-0.1,0.1-0.1,0.1c-0.1-0.1-0.2-0.2-0.4-0.3c-0.5-0.5-1-1.1-1.6-1.6c-1.4-1.3-2.9-2.4-4.5-3.3
			c-1.9-1.1-4-1.9-6-2.9c-1.9-0.9-3.8-1.8-5.7-2.7c-1.8-0.9-3.5-1.9-5.1-2.9c-1-0.7-1.9-1.4-2.8-2.2c-0.5-0.5-1.1-1-1.6-1.5
			c-0.7-0.7-1.3-1.4-1.7-2.3c-0.1-0.3-0.2-0.6-0.2-0.9c0-0.2,0.1-0.3,0.3-0.5c0.5-0.1,0.9,0.1,1.3,0.4c0.3,0.2,0.6,0.4,0.9,0.6
			c0.2,0.1,0.5,0.2,0.7,0.3c0.2,0.1,0.4,0.1,0.5-0.1c0-0.3-0.2-0.4-0.4-0.5c-0.5-0.3-1-0.7-1.6-0.9c-1.4-0.7-2.5-1.7-3.5-3
			c-0.7-0.9-1.3-1.7-1.8-2.7c-0.4-0.8-0.7-1.6-0.7-2.5c-0.1-1.1,0-2.1,0.4-3.1c0.1-0.3,0.3-0.6,0.4-0.9c1-0.6,2.1-0.5,2.9,0.1
			c0.8,0.6,1.6,1.2,2.4,1.8c0.2,0.1,0.4,0.3,0.6,0.5c0.1,0,0.3,0,0.5,0c0.1-0.1,0.1-0.2,0.2-0.3c0-0.3-0.2-0.4-0.4-0.5
			c-0.5-0.3-0.9-0.7-1.4-1c-0.7-0.5-1.4-1.1-2-1.8c-1.1-1.4-1.8-2.9-2.1-4.6c-0.2-1.4-0.1-2.8,0.3-4.2c0.3-1,0.7-1.9,1.3-2.7
			c0.6-0.7,1.2-1.2,2.1-1.5c1.2-0.3,2.3-0.1,3.3,0.6c0.5,0.4,0.9,0.9,1.3,1.3c0.9,1,1.7,2.1,2.6,3.1c1,1.2,2.2,2.1,3.5,3
			c2.2,1.5,4.6,2.9,6.9,4.3c1.4,0.8,2.9,1.7,4.3,2.6c2,1.2,3.7,2.8,5.2,4.6c1.3,1.7,2.4,3.5,3.1,5.5c0.5,1.4,0.8,2.8,1,4.2
			c0.1,1.2,0.1,2.4,0,3.6c-0.2,1.6-0.6,3.2-1.2,4.7c-0.3,0.8-0.8,1.6-1.1,2.3c-0.1,0.3-0.3,0.4-0.7,0.5c-0.1-0.1-0.3-0.2-0.4-0.3
			c-0.3-0.2-0.5-0.5-0.8-0.8c-1.1-1-2.2-1.9-3.5-2.6c-1.4-0.8-2.8-1.3-4.2-1.9c-1.3-0.5-2.7-1-4-1.7c-1.5-0.7-2.9-1.6-4.1-2.7
			c-1.2-1.2-2-2.5-2.2-4.2c-0.1-1.9,0.2-3.8,1.3-5.4c1.2-1.7,2.9-2.6,5-2.6c1.4,0,2.7,0.2,4,0.7c2,0.8,3.2,2.3,3.7,4.3
			c0.1,0.4,0.2,0.9,0.2,1.4c0,0.1,0,0.2,0,0.3c-0.3-0.2-0.5-0.4-0.8-0.6c-1.4-0.7-2.9-0.3-3.7,1.1c-1,1.8-0.8,3.7,0.4,5.3
			c0.9,1.2,2,2.1,3.3,2.8c0.6,0.3,1.1,0.6,1.7,0.9c0.6,0.4,1.2,0.8,1.9,1.2c0.7-0.4,1.2-0.9,1.6-1.6c0.5-0.8,0.7-1.7,0.9-2.6
			c0.1-0.8,0.1-1.6,0.1-2.4c-0.1-1.7-0.5-3.4-1.2-4.9c-0.8-1.6-1.8-3-3-4.3c-1.4-1.4-2.9-2.6-4.7-3.5c-0.9-0.4-1.7-0.9-2.6-1.2
			c-1.2-0.4-2.4-0.7-3.6-0.9c-1-0.1-2-0.1-3,0.1c-1.5,0.3-2.7,1-3.7,2.2c-1.1,1.3-1.7,2.8-2,4.4c-0.1,0.8-0.2,1.5-0.1,2.3
			c0.1,1.5,0.6,3,1.2,4.4c0.5,1.1,1.1,2.1,1.9,3.1c1.5,1.7,3.2,3.1,5.1,4.3c1.6,1,3.4,1.7,5.1,2.5c1.8,0.8,3.6,1.7,5.3,2.6
			c1.1,0.6,2.1,1.2,3.1,2c0.8,0.5,1.5,1.1,2.1,1.8c0.1,0.1,0.2,0.2,0.3,0.3c0.1,0,0.1-0.1,0.2-0.1c1.2-1.1,2.3-2.3,3.2-3.7
			c0.9-1.4,1.6-3,1.9-4.7c0.1-0.6,0.2-1.3,0.2-2c0-0.5,0.1-1,0.1-1.4c0-0.8-0.1-1.6-0.1-2.5c0-0.4-0.1-0.7-0.1-1.1
			c-0.2-1.6-0.6-3.1-1.2-4.6c-0.7-1.9-1.7-3.7-3-5.3c-0.9-1.1-1.9-2.2-2.9-3.2c-1-1-2-2-3.1-3c-1-1-1.8-2.2-2.4-3.5
			c-0.4-1-0.7-2-0.8-3.1c0-0.5-0.1-1-0.1-1.4c0.1-2,0.6-3.9,1.8-5.6c1.1-1.5,2.5-2.4,4.3-2.7c0.8-0.1,1.6-0.1,2.4-0.1
			c0.8,0.1,1.6,0.2,2.3,0.5c1.6,0.6,2.8,1.7,3.6,3.1c0.7,1.2,0.7,2.5,0,3.7c-0.1,0.1-0.1,0.2-0.2,0.4c0.1,0.5,0.2,1.1,0.3,1.7
			c0.1,0.4,0.3,0.8,0.5,1.2c0.2,0.2,0.3,0.5,0.4,0.7c0.1,0.3,0.1,0.6-0.1,0.8c-0.4,0.1-0.6-0.1-0.8-0.3c-1.3-1-2.3-2.2-3.1-3.7
			c-0.3-0.5-0.6-0.9-0.9-1.4c-0.8-1.1-1.9-1.4-3.1-1.3c-1.2,0.2-2.2,0.7-2.9,1.8c-0.6,0.9-0.9,2-0.7,3.1c0.3,1.9,1.1,3.4,2.4,4.8
			c0.7,0.8,1.6,1.5,2.4,2.2c1.2,1,2.4,2,3.6,3.1c0.8,0.7,1.5,1.4,2.2,2.1c1.5,1.6,2.9,3.4,3.9,5.4c0.7,1.5,1.3,3.1,1.6,4.8
			C186.4,128.7,186.4,130.1,186.3,131.4z M187.3,121.4c-0.1,0-0.2-0.1-0.4-0.1c0.6-0.3,1.2-0.5,1.6-1c0.4-0.5,0.5-1.1,0.7-1.7
			c0.2,0.6,0.3,1.2,0.7,1.7c0.4,0.5,1,0.7,1.6,0.8c-0.7,0.3-1.3,0.6-1.6,1.1c-0.4,0.5-0.5,1.2-0.7,1.8c0-0.2-0.1-0.3-0.2-0.5
			c-0.2-0.4-0.3-0.8-0.5-1.2C188.3,121.8,187.8,121.5,187.3,121.4z M199.8,190.4c-1.7,5.2-3.3,7.5-5.2,7.5c-2.6,0-3.9-5.2-3.9-15
			c0-16.4,2.3-25.9,9.1-37.2V190.4z M204.6,116c-0.1,0.8-0.3,1.6-0.5,2.4c-0.4,1.4-1.1,2.8-2.1,4c-0.9,1.1-2,2.1-3.2,2.9
			c-0.2,0.2-0.4,0.3-0.6,0.5c-0.2,0.2-0.3,0.4-0.1,0.7c0.2,0.1,0.4,0,0.5-0.1c0.3-0.2,0.6-0.4,1-0.6c0.2-0.1,0.5-0.2,0.7-0.4
			c0.1,0.1,0.2,0.1,0.3,0.1c0.1,0,0.1,0.1,0.2,0.2c0,0.5-0.2,1-0.5,1.4c-0.9,1.2-2,2.3-3.1,3.3c-2,1.7-4.2,3.1-6.4,4.4
			c-0.5,0.3-1.1,0.7-1.7,1.1c0.1-0.3,0.3-0.4,0.4-0.6c1.2-1.3,2.3-2.6,3.3-4c0.8-1,1.5-2.1,2-3.2c0.5-1,1-2.1,1.2-3.2
			c0.1-0.5,0.2-1.1,0.2-1.6c0.1-1.1,0.2-2.2,0.1-3.2c-0.1-1.5-0.3-2.9-1-4.2c-0.8-1.5-2-2.5-3.5-3.2c-0.9-0.4-1.9-0.6-2.9-0.6
			c-0.9,0-1.8,0.3-2.6,0.6c-0.9,0.4-1.8,0.9-2.7,1.4c-0.2,0.1-0.4,0.3-0.7,0.3c-0.1-0.1-0.2-0.2-0.2-0.3c0.1-0.4,0.2-0.6,0.5-0.8
			c0.3-0.2,0.5-0.4,0.8-0.5c1.6-1.1,3.2-2.3,4.7-3.5c0.9-0.7,1.6-1.6,2.4-2.4c1-1.1,1.9-2.2,2.7-3.5c0.5-0.8,1-1.6,1.4-2.4
			c0.3-0.6,0.7-1.3,1.2-1.8c0.3-0.3,0.6-0.5,1-0.7c0.8-0.3,1.6-0.3,2.3,0.2c1.1,0.7,1.9,1.6,2.5,2.7c0.6,1.1,0.9,2.2,1,3.4
			c0,0.5,0.1,1,0.1,1.5c0,1.3-0.4,2.4-1,3.5c-0.5,0.9-1.2,1.8-1.9,2.6c-0.2,0.2-0.5,0.5-0.7,0.7c-0.1,0.1-0.2,0.2-0.2,0.4
			c0.3,0.5,0.6,0.7,1.1,0.3c0.4-0.3,0.7-0.6,1.1-0.7c0.7-0.3,1.4-0.4,2.1-0.2c0.6,0.2,1,0.6,1.1,1.2
			C204.7,114.8,204.7,115.4,204.6,116z"/>
	</defs>
	<clipPath id="SVGID_11_">
		<use xlink:href="#SVGID_10_"  style="overflow:visible;"/>
	</clipPath>
	<linearGradient id="SVGID_12_" gradientUnits="userSpaceOnUse" x1="87.4256" y1="-23.4256" x2="168.5744" y2="279.4256">
		<stop  offset="0" style="stop-color:#6DCCE1"/>
		<stop  offset="1" style="stop-color:#008AAC"/>
	</linearGradient>
	<rect class="st3" width="256" height="256"/>
</g>
<g>
	<defs>
		<polygon id="SVGID_13_" points="120.1,219.2 132.7,219.2 132.7,186.3 132.7,76 120.1,76 		"/>
	</defs>
	<clipPath id="SVGID_14_">
		<use xlink:href="#SVGID_13_"  style="overflow:visible;"/>
	</clipPath>
	<linearGradient id="SVGID_15_" gradientUnits="userSpaceOnUse" x1="87.4256" y1="-23.4256" x2="168.5744" y2="279.4256">
		<stop  offset="0" style="stop-color:#6DCCE1"/>
		<stop  offset="1" style="stop-color:#008AAC"/>
	</linearGradient>
	<rect class="st4" width="256" height="256"/>
</g>
<g>
	<defs>
		<rect id="SVGID_16_" x="120.1" y="36.9" width="12.5" height="25.6"/>
	</defs>
	<clipPath id="SVGID_17_">
		<use xlink:href="#SVGID_16_"  style="overflow:visible;"/>
	</clipPath>
	<linearGradient id="SVGID_18_" gradientUnits="userSpaceOnUse" x1="87.4256" y1="-23.4256" x2="168.5744" y2="279.4256">
		<stop  offset="0" style="stop-color:#6DCCE1"/>
		<stop  offset="1" style="stop-color:#008AAC"/>
	</linearGradient>
	<rect class="st5" width="256" height="256"/>
</g>
<g>
	<defs>
		<path id="SVGID_19_" d="M103.6,154.1l-6.3-78H88l-6,76.6L76.2,76h-20V36.9H43.7v154.9c0,19.3,4.9,29.4,14.1,29.4
			c2,0,3.6-0.6,7.2-2v-23l-2.3,0.3c-4.5,0-6.5-4-6.5-13.2V99.1h10.6l9.4,120.1h9.5l7.1-82.1l6.8,82.1h9.6L120.1,76h-10.9
			L103.6,154.1z"/>
	</defs>
	<clipPath id="SVGID_20_">
		<use xlink:href="#SVGID_19_"  style="overflow:visible;"/>
	</clipPath>
	<linearGradient id="SVGID_21_" gradientUnits="userSpaceOnUse" x1="87.4256" y1="-23.4256" x2="168.5744" y2="279.4256">
		<stop  offset="0" style="stop-color:#6DCCE1"/>
		<stop  offset="1" style="stop-color:#008AAC"/>
	</linearGradient>
	<rect class="st6" width="256" height="256"/>
</g>
<g>
	<defs>
		<path id="SVGID_22_" d="M221.5,217.9c-1.1-6.7-1.2-10.4-1.2-21.8v-87.8c0-27.3-8.6-42.3-24.3-42.3c-3,0-5.9,0.7-8.5,2h-3.6V28.9
			h-28.5v37.6c-1.3-0.3-2.7-0.5-4.2-0.5c-3.9,0-7.5,0.9-10.6,2.7V68V28.9h-28.5V68H64.2V28.9H35.7v162.9c0,14,2.9,37.4,22.1,37.4
			c3.5,0,6.2-1,10.2-2.6l0.8-0.3l0.1,0.9h43.3h4.5h24.1V227c2.7,1.4,5.6,2.1,8.8,2.1c5.2,0,10.1-2.2,14-6.2c4.4,5,9.8,6.2,14,6.2
			c2.3,0,4.2-0.4,6.3-1.1c1.7,0.7,3.5,1.1,5.4,1.1c2.6,0,5-0.7,7.3-2H223L221.5,217.9z M140.7,164.7c1.6,3.4,2.8,6.1,3.6,8.4
			l-3.6,0.5V164.7z M116.1,32.9h20.5v33.6h-20.5V32.9z M116.1,180.8 M135.5,223.2h-18.6l-0.8-42.4l-4,42.4H95.8l-3.2-38.4l-3.3,38.4
			H72.5l-9.4-120.1h-2.9v80.1c0,3.4,0.3,9,2.3,9.2l6.5-0.8v30.3l-2.5,1c-3.8,1.5-5.9,2.3-8.7,2.3c-8.3,0-18.1-5.8-18.1-33.4V32.9
			h20.5V72h19.7l2.1,28.5L84.3,72h16.6l2.4,29.7l2.1-29.7h30.8l4.4,1.4c2.9-2.3,6.5-3.4,10.6-3.4c2.6,0,5,0.7,7.3,2h0.9V32.9h20.5
			V72h8.6c2.3-1.3,4.8-2,7.5-2c17.6,0,20.3,24,20.3,38.3v87.8c0,11.7,0.1,15.4,1.2,22.4l0.7,4.6h-21.1l-0.2-1.6
			c-2.1,2.2-4.6,3.6-7.8,3.6c-1.8,0-3.6-0.5-5.1-1.5c-2.5,1-4.3,1.5-6.5,1.5c-4.5,0-10-1.8-13.7-9c-3.7,5.8-8.6,9-14.2,9
			c-3.3,0-6.3-1-8.8-2.8L135.5,223.2z M136.7,178.3l12.5-1.8l-0.3,4.9c-0.1,2.2-0.1,3-0.1,4.4c0,3.3,0.3,5.5,0.7,6.9
			c0.4-1.4,0.8-3.6,0.8-6.9c0-7.9-0.9-12.1-6.8-24.5l-2.8-5.7l-4,0.9 M65.7,188l-1.2,0.2c-0.2-1-0.3-2.6-0.3-5v-14.9L65.7,188z"/>
	</defs>
	<clipPath id="SVGID_23_">
		<use xlink:href="#SVGID_22_"  style="overflow:visible;"/>
	</clipPath>
	<linearGradient id="SVGID_24_" gradientUnits="userSpaceOnUse" x1="87.4256" y1="-23.4256" x2="168.5744" y2="279.4256">
		<stop  offset="0" style="stop-color:#6DCCE1"/>
		<stop  offset="1" style="stop-color:#008AAC"/>
	</linearGradient>
	<rect class="st7" width="256" height="256"/>
</g>
<linearGradient id="SVGID_25_" gradientUnits="userSpaceOnUse" x1="363.4256" y1="-23.4256" x2="444.5744" y2="279.4256">
	<stop  offset="0" style="stop-color:#6DCCE1"/>
	<stop  offset="1" style="stop-color:#008AAC"/>
</linearGradient>
<rect x="276" y="0" class="st8" width="256" height="256"/>
<path class="st9" d="M160.3,102.9c0.3-1.9,1.4-2.9,3.3-3.1c-0.2-0.1-0.4-0.2-0.6-0.2c-0.5-0.2-0.8-0.4-1.2-0.7
	c-0.6-0.6-1-1.3-1.2-2.1c-0.1-0.2-0.1-0.4-0.1-0.6c0-0.2-0.1-0.3-0.1-0.5c-0.3,1.9-1.2,3.4-3.3,4.1c0.9,0.2,1.6,0.5,2.2,1.1
	C159.8,101.4,160.1,102.1,160.3,102.9z"/>
<path class="st9" d="M169.1,91.2c0.1,0.3,0.3,0.6,0.4,1c0.1,0.1,0.1,0.3,0.1,0.4c0,0.6,0.3,1.1,0.7,1.6c2.3-0.9,4.6-0.7,7-0.1
	c0.3-0.3,0.4-0.6,0.5-0.9c0.1-0.3,0.2-0.6,0.4-0.9c0.2-0.3,0.3-0.6,0.5-0.9c0.1-0.3,0.2-0.6,0.3-1c0,0,0-0.1-0.1-0.2
	c-0.1-0.2-0.3-0.3-0.5-0.3c-0.2,0-0.4,0.2-0.4,0.4c0,0,0,0.1,0,0.1c0,0.4-0.2,0.7-0.4,1c-0.1,0.1-0.2,0.3-0.5,0.3
	c-0.1-0.1-0.2-0.2-0.2-0.3c0-0.6-0.1-1.1,0.1-1.7c0.1-0.3,0.2-0.6-0.1-0.9c-0.3-0.2-0.6-0.2-0.8,0.1c-0.2,0.2-0.1,0.5-0.1,0.8
	c-0.1,0.3-0.3,0.7-0.4,1.1c-0.1,0.2-0.3,0.4-0.6,0.4c-0.3-0.1-0.5-0.3-0.6-0.6c-0.1-0.3-0.1-0.6-0.2-0.8c0-0.3-0.1-0.6,0-0.9
	c0-0.1,0-0.2,0-0.3c0-0.3-0.2-0.5-0.5-0.6c-0.2,0-0.5,0.1-0.6,0.3c-0.1,0.1-0.1,0.2-0.1,0.4c0.1,0.2,0.2,0.4,0.4,0.7
	c0,0.4,0,0.8-0.1,1.2c-0.1,0.4-0.2,0.7-0.6,0.9c-0.9-0.2-0.9-0.9-1.2-1.5c0.3-0.6,0.2-0.9-0.3-1c-0.5,0.2-0.5,0.2-0.7,0.7
	c0.1,0.2,0.2,0.3,0.4,0.6c0,0.5,0.1,1.1-0.2,1.7c-0.5,0-0.8-0.2-1-0.8c0.1-0.2,0.2-0.5,0-0.7c-0.5-0.3-0.7-0.3-1.1,0.2
	c0,0.1,0,0.3,0,0.5C168.7,90.9,168.9,91,169.1,91.2z"/>
<path class="st9" d="M189.2,124c0.2-0.6,0.3-1.3,0.7-1.8c0.4-0.6,1-0.8,1.6-1.1c-0.7-0.2-1.2-0.4-1.6-0.8c-0.4-0.5-0.5-1-0.7-1.7
	c-0.2,0.7-0.3,1.2-0.7,1.7c-0.4,0.5-0.9,0.7-1.6,1c0.2,0.1,0.3,0.1,0.4,0.1c0.5,0.2,1,0.5,1.3,1c0.2,0.4,0.3,0.8,0.5,1.2
	C189.1,123.7,189.2,123.9,189.2,124z"/>
<path class="st9" d="M184.5,122.5c-1-2-2.3-3.8-3.9-5.4c-0.7-0.7-1.4-1.4-2.2-2.1c-1.2-1-2.4-2.1-3.6-3.1c-0.8-0.7-1.7-1.4-2.4-2.2
	c-1.3-1.3-2.1-2.9-2.4-4.8c-0.2-1.1,0.1-2.1,0.7-3.1c0.7-1.1,1.7-1.6,2.9-1.8c1.3-0.2,2.4,0.2,3.1,1.3c0.3,0.4,0.6,0.9,0.9,1.4
	c0.8,1.5,1.8,2.7,3.1,3.7c0.2,0.2,0.5,0.4,0.8,0.3c0.2-0.3,0.2-0.5,0.1-0.8c-0.1-0.3-0.3-0.5-0.4-0.7c-0.3-0.4-0.5-0.7-0.5-1.2
	c-0.1-0.6-0.2-1.2-0.3-1.7c0.1-0.2,0.2-0.3,0.2-0.4c0.7-1.2,0.7-2.5,0-3.7c-0.8-1.5-2-2.5-3.6-3.1c-0.7-0.3-1.5-0.4-2.3-0.5
	c-0.8-0.1-1.6-0.1-2.4,0.1c-1.8,0.3-3.2,1.2-4.3,2.7c-1.2,1.7-1.7,3.6-1.8,5.6c0,0.5,0,1,0.1,1.4c0.1,1.1,0.4,2.1,0.8,3.1
	c0.6,1.3,1.4,2.5,2.4,3.5c1,1,2,2,3.1,3c1,1,2,2,2.9,3.2c1.3,1.6,2.3,3.4,3,5.3c0.6,1.5,1,3,1.2,4.6c0,0.4,0.1,0.7,0.1,1.1
	c0.1,0.8,0.1,1.6,0.1,2.5c0,0.5,0,1-0.1,1.4c-0.1,0.7-0.1,1.3-0.2,2c-0.3,1.7-1,3.3-1.9,4.7c-0.9,1.4-2,2.6-3.2,3.7
	c0,0-0.1,0.1-0.2,0.1c-0.1-0.1-0.2-0.2-0.3-0.3c-0.6-0.7-1.4-1.3-2.1-1.8c-1-0.7-2-1.4-3.1-2c-1.7-1-3.5-1.8-5.3-2.6
	c-1.7-0.8-3.5-1.5-5.1-2.5c-1.9-1.2-3.7-2.5-5.1-4.3c-0.8-0.9-1.4-2-1.9-3.1c-0.7-1.4-1.1-2.8-1.2-4.4c-0.1-0.8-0.1-1.5,0.1-2.3
	c0.3-1.6,1-3.1,2-4.4c1-1.2,2.2-1.9,3.7-2.2c1-0.2,2-0.2,3-0.1c1.3,0.2,2.5,0.5,3.6,0.9c0.9,0.3,1.8,0.8,2.6,1.2
	c1.8,0.9,3.3,2.1,4.7,3.5c1.2,1.3,2.2,2.7,3,4.3c0.8,1.6,1.1,3.2,1.2,4.9c0.1,0.8,0.1,1.6-0.1,2.4c-0.1,0.9-0.4,1.8-0.9,2.6
	c-0.4,0.7-1,1.2-1.6,1.6c-0.7-0.4-1.3-0.8-1.9-1.2c-0.6-0.3-1.1-0.6-1.7-0.9c-1.3-0.7-2.4-1.6-3.3-2.8c-1.2-1.6-1.4-3.5-0.4-5.3
	c0.8-1.4,2.3-1.8,3.7-1.1c0.3,0.2,0.5,0.4,0.8,0.6c0-0.1,0-0.2,0-0.3c-0.1-0.5-0.1-0.9-0.2-1.4c-0.5-2.1-1.7-3.5-3.7-4.3
	c-1.3-0.5-2.6-0.7-4-0.7c-2.1,0-3.8,0.9-5,2.6c-1.1,1.6-1.5,3.4-1.3,5.4c0.1,1.7,1,3.1,2.2,4.2c1.2,1.2,2.6,2,4.1,2.7
	c1.3,0.6,2.6,1.2,4,1.7c1.5,0.5,2.9,1.1,4.2,1.9c1.3,0.7,2.5,1.6,3.5,2.6c0.3,0.3,0.5,0.5,0.8,0.8c0.1,0.1,0.3,0.2,0.4,0.3
	c0.3-0.1,0.6-0.3,0.7-0.5c0.4-0.8,0.8-1.5,1.1-2.3c0.6-1.5,1-3.1,1.2-4.7c0.1-1.2,0.2-2.4,0-3.6c-0.1-1.4-0.5-2.9-1-4.2
	c-0.8-2-1.8-3.8-3.1-5.5c-1.5-1.8-3.2-3.4-5.2-4.6c-1.4-0.9-2.8-1.7-4.3-2.6c-2.3-1.4-4.6-2.8-6.9-4.3c-1.3-0.9-2.4-1.8-3.5-3
	c-0.9-1-1.7-2.1-2.6-3.1c-0.4-0.5-0.8-1-1.3-1.3c-1-0.8-2.1-1-3.3-0.6c-0.9,0.2-1.5,0.8-2.1,1.5c-0.6,0.8-1,1.7-1.3,2.7
	c-0.4,1.4-0.6,2.7-0.3,4.2c0.3,1.7,1,3.2,2.1,4.6c0.6,0.7,1.3,1.3,2,1.8c0.5,0.3,0.9,0.7,1.4,1c0.2,0.1,0.3,0.3,0.4,0.5
	c-0.1,0.1-0.1,0.2-0.2,0.3c-0.2,0-0.3,0-0.5,0c-0.2-0.2-0.4-0.3-0.6-0.5c-0.8-0.6-1.6-1.2-2.4-1.8c-0.8-0.6-1.9-0.8-2.9-0.1
	c-0.1,0.2-0.3,0.5-0.4,0.9c-0.4,1-0.5,2-0.4,3.1c0.1,0.9,0.3,1.7,0.7,2.5c0.5,0.9,1.1,1.8,1.8,2.7c0.9,1.2,2,2.3,3.5,3
	c0.5,0.3,1.1,0.6,1.6,0.9c0.2,0.1,0.4,0.2,0.4,0.5c-0.1,0.2-0.3,0.2-0.5,0.1c-0.2-0.1-0.5-0.2-0.7-0.3c-0.3-0.2-0.6-0.4-0.9-0.6
	c-0.4-0.2-0.8-0.5-1.3-0.4c-0.2,0.1-0.3,0.3-0.3,0.5c0,0.3,0.1,0.6,0.2,0.9c0.4,0.9,1.1,1.6,1.7,2.3c0.5,0.5,1,1,1.6,1.5
	c0.9,0.8,1.8,1.5,2.8,2.2c1.6,1.1,3.3,2.1,5.1,2.9c1.9,0.9,3.8,1.8,5.7,2.7c2,0.9,4,1.8,6,2.9c1.7,0.9,3.1,2,4.5,3.3
	c0.5,0.5,1.1,1,1.6,1.6c0.1,0.1,0.2,0.2,0.4,0.3c0.1-0.1,0.1-0.1,0.1-0.1c0.6-0.7,1.3-1.3,2.1-1.9c1-0.7,2-1.4,3-2.1
	c0.9-0.6,1.7-1.4,2.5-2.2c0.6-0.6,1.1-1.2,1.6-1.8c0.9-1.2,1.6-2.6,2-4c0.2-0.9,0.4-1.7,0.5-2.7c0.1-1.4,0.1-2.8-0.2-4.1
	C185.8,125.7,185.2,124.1,184.5,122.5z M177.3,99.9c0.2,0,0.4,0,0.5,0c0.4,0.3,0.7,0.6,0.8,1c0.2,0.3,0.3,0.6,0.4,0.9
	c0.1,0.2,0.1,0.4-0.2,0.7c-0.1-0.1-0.3-0.1-0.4-0.2c-0.4-0.4-0.7-0.9-1-1.3c-0.1-0.2-0.2-0.4-0.2-0.6
	C177.2,100.2,177.3,100.1,177.3,99.9z M149.9,110.5c-0.1-0.5-0.3-0.9-0.6-1.4c-0.4-0.5-0.8-0.9-1.5-1.1c-0.2,0-0.3-0.1-0.6-0.2
	c0.1,0,0.2-0.1,0.2-0.1c1.2-0.3,2-1.1,2.3-2.3c0.1-0.2,0.1-0.5,0.2-0.8c0.1,0.1,0.1,0.2,0.1,0.3c0.1,0.4,0.2,0.8,0.4,1.1
	c0.4,0.8,1.1,1.2,1.9,1.5c0.1,0,0.2,0.1,0.4,0.1c-0.8,0.3-1.5,0.7-2,1.4c-0.4,0.7-0.6,1.4-0.7,2.2c0,0-0.1,0-0.1,0
	C150,111,150,110.8,149.9,110.5z"/>
<path class="st9" d="M203.4,113c-0.7-0.2-1.4-0.1-2.1,0.2c-0.4,0.2-0.8,0.5-1.1,0.7c-0.4,0.3-0.8,0.2-1.1-0.3
	c0.1-0.1,0.1-0.3,0.2-0.4c0.2-0.3,0.5-0.5,0.7-0.7c0.7-0.8,1.4-1.6,1.9-2.6c0.6-1.1,1-2.3,1-3.5c0-0.5,0-1-0.1-1.5
	c-0.1-1.2-0.4-2.3-1-3.4c-0.6-1.1-1.4-2-2.5-2.7c-0.7-0.5-1.5-0.5-2.3-0.2c-0.4,0.2-0.7,0.4-1,0.7c-0.5,0.5-0.9,1.1-1.2,1.8
	c-0.4,0.8-0.9,1.7-1.4,2.4c-0.8,1.2-1.7,2.4-2.7,3.5c-0.8,0.8-1.5,1.6-2.4,2.4c-1.5,1.3-3.1,2.5-4.7,3.5c-0.3,0.2-0.5,0.4-0.8,0.5
	c-0.3,0.2-0.4,0.4-0.5,0.8c0.1,0.1,0.2,0.2,0.2,0.3c0.3,0,0.5-0.2,0.7-0.3c0.8-0.6,1.7-1.1,2.7-1.4c0.8-0.3,1.7-0.6,2.6-0.6
	c1-0.1,2,0.2,2.9,0.6c1.5,0.7,2.7,1.7,3.5,3.2c0.7,1.3,1,2.7,1,4.2c0,1.1,0,2.2-0.1,3.2c-0.1,0.5-0.1,1.1-0.2,1.6
	c-0.2,1.1-0.7,2.2-1.2,3.2c-0.6,1.1-1.3,2.2-2,3.2c-1,1.4-2.1,2.7-3.3,4c-0.1,0.2-0.3,0.3-0.4,0.6c0.6-0.4,1.2-0.7,1.7-1.1
	c2.2-1.4,4.4-2.7,6.4-4.4c1.2-1,2.2-2.1,3.1-3.3c0.3-0.4,0.5-0.9,0.5-1.4c-0.1-0.1-0.1-0.1-0.2-0.2c-0.1,0-0.1-0.1-0.3-0.1
	c-0.2,0.1-0.5,0.2-0.7,0.4c-0.3,0.2-0.6,0.4-1,0.6c-0.1,0.1-0.3,0.2-0.5,0.1c-0.2-0.3-0.1-0.5,0.1-0.7c0.2-0.2,0.4-0.4,0.6-0.5
	c1.2-0.8,2.3-1.8,3.2-2.9c0.9-1.2,1.6-2.5,2.1-4c0.2-0.8,0.4-1.6,0.5-2.4c0.1-0.6,0.1-1.2,0-1.8C204.4,113.6,204,113.2,203.4,113z"
	/>
<path class="st9" d="M194.6,197.8c1.9,0,3.5-2.3,5.2-7.5v-44.6c-6.8,11.2-9.1,20.7-9.1,37.2C190.7,192.7,192,197.8,194.6,197.8z"/>
<g>
	<defs>
		<path id="SVGID_26_" d="M471.2,191.2c0.2-0.4,0.4-1,0.6-1.6v-22.4c-0.8,4.5-1.1,9.5-1.1,15.6C470.7,186.8,471,189.5,471.2,191.2z"
			/>
	</defs>
	<use xlink:href="#SVGID_26_"  style="overflow:visible;fill:#FFFFFF;"/>
	<clipPath id="SVGID_27_">
		<use xlink:href="#SVGID_26_"  style="overflow:visible;"/>
	</clipPath>
	<rect x="276" y="0" class="st10" width="256" height="256"/>
</g>
<g>
	<defs>
		<path id="SVGID_28_" d="M454.5,102.2c0.1,0.1,0.2,0.1,0.4,0.2c0.3-0.2,0.3-0.4,0.2-0.7c-0.1-0.3-0.3-0.6-0.4-0.9
			c-0.2-0.4-0.5-0.7-0.8-1c-0.1,0-0.3,0-0.5,0c0,0.2-0.1,0.3,0,0.4c0,0.2,0.1,0.4,0.2,0.6C453.8,101.3,454.1,101.8,454.5,102.2z"/>
	</defs>
	<clipPath id="SVGID_29_">
		<use xlink:href="#SVGID_28_"  style="overflow:visible;"/>
	</clipPath>
	<linearGradient id="SVGID_30_" gradientUnits="userSpaceOnUse" x1="363.4256" y1="-23.4256" x2="444.5744" y2="279.4256">
		<stop  offset="0" style="stop-color:#6DCCE1"/>
		<stop  offset="1" style="stop-color:#008AAC"/>
	</linearGradient>
	<rect x="276" y="0" class="st11" width="256" height="256"/>
</g>
<g>
	<defs>
		<path id="SVGID_31_" d="M426.9,109.1c0.5-0.7,1.2-1,2-1.4c-0.2-0.1-0.3-0.1-0.4-0.1c-0.8-0.2-1.5-0.7-1.9-1.5
			c-0.2-0.4-0.3-0.8-0.4-1.1c0-0.1-0.1-0.1-0.1-0.3c-0.1,0.3-0.2,0.6-0.2,0.8c-0.3,1.2-1.1,2-2.3,2.3c0,0-0.1,0-0.2,0.1
			c0.3,0.1,0.4,0.1,0.6,0.2c0.6,0.2,1.1,0.5,1.5,1.1c0.3,0.4,0.5,0.9,0.6,1.4c0.1,0.3,0.2,0.5,0.2,0.8c0,0,0.1,0,0.1,0
			C426.4,110.5,426.5,109.8,426.9,109.1z"/>
	</defs>
	<clipPath id="SVGID_32_">
		<use xlink:href="#SVGID_31_"  style="overflow:visible;"/>
	</clipPath>
	<linearGradient id="SVGID_33_" gradientUnits="userSpaceOnUse" x1="363.4256" y1="-23.4256" x2="444.5744" y2="279.4256">
		<stop  offset="0" style="stop-color:#6DCCE1"/>
		<stop  offset="1" style="stop-color:#008AAC"/>
	</linearGradient>
	<rect x="276" y="0" class="st12" width="256" height="256"/>
</g>
<g>
	<defs>
		<path id="SVGID_34_" d="M488.3,196.1v-87.8c0-22.2-5.8-34.3-16.3-34.3c-2.3,0-4.5,0.7-6.4,2l0,0h-13.8V36.9h-12.5V76h-6v0
			c-1.8-1.3-3.9-2-6.1-2c-11.5,0-17.3,12.1-17.3,36c0,15,2.7,27.9,8.2,39.5l4.9,10.1c5.9,12.4,7.2,17.3,7.2,26.2
			c0,7.5-1.9,12.4-4.8,12.4c-3,0-4.8-4.6-4.8-12.4c0-1.4,0-2.3,0.1-4.6l-12.1,1.7c-0.1,1.4-0.1,2-0.1,3.5c0,21.3,6.5,34.8,16.8,34.8
			c6.7,0,11.9-6.1,14.8-16.4c1.8,10.8,6.3,16.4,13.2,16.4c2,0,3.6-0.6,7.2-2v0c1.3,1.3,2.8,2,4.5,2c4.2,0,7.6-4.3,10.7-13.5
			c0.1,4.3,0.4,8.6,0.9,11.5h13C488.5,212,488.3,208.2,488.3,196.1z M445.7,90.1c0.1,0.2,0,0.5,0,0.7c0.3,0.6,0.5,0.8,1,0.8
			c0.3-0.5,0.2-1.1,0.2-1.7c-0.1-0.2-0.3-0.4-0.4-0.6c0.2-0.6,0.2-0.6,0.7-0.7c0.6,0.2,0.6,0.4,0.3,1c0.3,0.6,0.4,1.4,1.2,1.5
			c0.4-0.2,0.5-0.5,0.6-0.9c0.1-0.4,0.1-0.8,0.1-1.2c-0.1-0.3-0.3-0.5-0.4-0.7c0-0.1,0.1-0.3,0.1-0.4c0.1-0.2,0.4-0.4,0.6-0.3
			c0.3,0.1,0.5,0.3,0.5,0.6c0,0.1,0,0.2,0,0.3c-0.1,0.3-0.1,0.6,0,0.9c0,0.3,0.1,0.6,0.2,0.8c0.1,0.3,0.3,0.5,0.6,0.6
			c0.3,0,0.5-0.2,0.6-0.4c0.2-0.4,0.3-0.7,0.4-1.1c0-0.3-0.2-0.6,0.1-0.8c0.3-0.3,0.5-0.2,0.8-0.1c0.3,0.3,0.2,0.6,0.1,0.9
			c-0.3,0.6-0.2,1.1-0.1,1.7c0,0.1,0.1,0.2,0.2,0.3c0.3,0,0.4-0.1,0.5-0.3c0.2-0.3,0.4-0.6,0.4-1c0,0,0-0.1,0-0.1
			c0.1-0.2,0.2-0.4,0.4-0.4c0.2,0,0.4,0.1,0.5,0.3c0,0.1,0,0.2,0.1,0.2c-0.1,0.4-0.2,0.7-0.3,1c-0.1,0.3-0.3,0.7-0.5,0.9
			c-0.2,0.3-0.3,0.6-0.4,0.9c-0.1,0.3-0.2,0.7-0.5,0.9c-2.3-0.6-4.6-0.8-7,0.1c-0.4-0.5-0.7-0.9-0.7-1.6c0-0.1,0-0.3-0.1-0.4
			c-0.1-0.3-0.3-0.7-0.4-1c-0.2-0.1-0.3-0.3-0.5-0.4c0-0.2,0-0.3,0-0.5C444.9,89.8,445.2,89.8,445.7,90.1z M436.3,95.7
			c0,0.2,0.1,0.3,0.1,0.5c0,0.2,0.1,0.4,0.1,0.6c0.2,0.8,0.6,1.5,1.2,2.1c0.3,0.3,0.7,0.6,1.2,0.7c0.2,0.1,0.4,0.1,0.6,0.2
			c-1.9,0.2-3,1.2-3.3,3.1c-0.2-0.8-0.5-1.5-1-2.1c-0.6-0.6-1.3-0.9-2.2-1.1C435.1,99.1,436,97.6,436.3,95.7z M462.3,131.4
			c-0.1,0.9-0.3,1.8-0.5,2.7c-0.4,1.5-1.1,2.8-2,4c-0.5,0.6-1,1.3-1.6,1.8c-0.8,0.8-1.6,1.5-2.5,2.2c-1,0.7-2,1.4-3,2.1
			c-0.8,0.5-1.5,1.1-2.1,1.9c0,0-0.1,0.1-0.1,0.1c-0.1-0.1-0.2-0.2-0.4-0.3c-0.5-0.5-1-1.1-1.6-1.6c-1.4-1.3-2.9-2.4-4.5-3.3
			c-1.9-1.1-4-1.9-6-2.9c-1.9-0.9-3.8-1.8-5.7-2.7c-1.8-0.9-3.5-1.9-5.1-2.9c-1-0.7-1.9-1.4-2.8-2.2c-0.5-0.5-1.1-1-1.6-1.5
			c-0.7-0.7-1.3-1.4-1.7-2.3c-0.1-0.3-0.2-0.6-0.2-0.9c0-0.2,0.1-0.3,0.3-0.5c0.5-0.1,0.9,0.1,1.3,0.4c0.3,0.2,0.6,0.4,0.9,0.6
			c0.2,0.1,0.5,0.2,0.7,0.3c0.2,0.1,0.4,0.1,0.5-0.1c0-0.3-0.2-0.4-0.4-0.5c-0.5-0.3-1-0.7-1.6-0.9c-1.4-0.7-2.5-1.7-3.5-3
			c-0.7-0.9-1.3-1.7-1.8-2.7c-0.4-0.8-0.7-1.6-0.7-2.5c-0.1-1.1,0-2.1,0.4-3.1c0.1-0.3,0.3-0.6,0.4-0.9c1-0.6,2.1-0.5,2.9,0.1
			c0.8,0.6,1.6,1.2,2.4,1.8c0.2,0.1,0.4,0.3,0.6,0.5c0.1,0,0.3,0,0.5,0c0.1-0.1,0.1-0.2,0.2-0.3c0-0.3-0.2-0.4-0.4-0.5
			c-0.5-0.3-0.9-0.7-1.4-1c-0.7-0.5-1.4-1.1-2-1.8c-1.1-1.4-1.8-2.9-2.1-4.6c-0.2-1.4-0.1-2.8,0.3-4.2c0.3-1,0.7-1.9,1.3-2.7
			c0.6-0.7,1.2-1.2,2.1-1.5c1.2-0.3,2.3-0.1,3.3,0.6c0.5,0.4,0.9,0.9,1.3,1.3c0.9,1,1.7,2.1,2.6,3.1c1,1.2,2.2,2.1,3.5,3
			c2.2,1.5,4.6,2.9,6.9,4.3c1.4,0.8,2.9,1.7,4.3,2.6c2,1.2,3.7,2.8,5.2,4.6c1.3,1.7,2.4,3.5,3.1,5.5c0.5,1.4,0.8,2.8,1,4.2
			c0.1,1.2,0.1,2.4,0,3.6c-0.2,1.6-0.6,3.2-1.2,4.7c-0.3,0.8-0.8,1.6-1.1,2.3c-0.1,0.3-0.3,0.4-0.7,0.5c-0.1-0.1-0.3-0.2-0.4-0.3
			c-0.3-0.2-0.5-0.5-0.8-0.8c-1.1-1-2.2-1.9-3.5-2.6c-1.4-0.8-2.8-1.3-4.2-1.9c-1.3-0.5-2.7-1-4-1.7c-1.5-0.7-2.9-1.6-4.1-2.7
			c-1.2-1.2-2-2.5-2.2-4.2c-0.1-1.9,0.2-3.8,1.3-5.4c1.2-1.7,2.9-2.6,5-2.6c1.4,0,2.7,0.2,4,0.7c2,0.8,3.2,2.3,3.7,4.3
			c0.1,0.4,0.2,0.9,0.2,1.4c0,0.1,0,0.2,0,0.3c-0.3-0.2-0.5-0.4-0.8-0.6c-1.4-0.7-2.9-0.3-3.7,1.1c-1,1.8-0.8,3.7,0.4,5.3
			c0.9,1.2,2,2.1,3.3,2.8c0.6,0.3,1.1,0.6,1.7,0.9c0.6,0.4,1.2,0.8,1.9,1.2c0.7-0.4,1.2-0.9,1.6-1.6c0.5-0.8,0.7-1.7,0.9-2.6
			c0.1-0.8,0.1-1.6,0.1-2.4c-0.1-1.7-0.5-3.4-1.2-4.9c-0.8-1.6-1.8-3-3-4.3c-1.4-1.4-2.9-2.6-4.7-3.5c-0.9-0.4-1.7-0.9-2.6-1.2
			c-1.2-0.4-2.4-0.7-3.6-0.9c-1-0.1-2-0.1-3,0.1c-1.5,0.3-2.7,1-3.7,2.2c-1.1,1.3-1.7,2.8-2,4.4c-0.1,0.8-0.2,1.5-0.1,2.3
			c0.1,1.5,0.6,3,1.2,4.4c0.5,1.1,1.1,2.1,1.9,3.1c1.5,1.7,3.2,3.1,5.1,4.3c1.6,1,3.4,1.7,5.1,2.5c1.8,0.8,3.6,1.7,5.3,2.6
			c1.1,0.6,2.1,1.2,3.1,2c0.8,0.5,1.5,1.1,2.1,1.8c0.1,0.1,0.2,0.2,0.3,0.3c0.1,0,0.1-0.1,0.2-0.1c1.2-1.1,2.3-2.3,3.2-3.7
			c0.9-1.4,1.6-3,1.9-4.7c0.1-0.6,0.2-1.3,0.2-2c0-0.5,0.1-1,0.1-1.4c0-0.8-0.1-1.6-0.1-2.5c0-0.4-0.1-0.7-0.1-1.1
			c-0.2-1.6-0.6-3.1-1.2-4.6c-0.7-1.9-1.7-3.7-3-5.3c-0.9-1.1-1.9-2.2-2.9-3.2c-1-1-2-2-3.1-3c-1-1-1.8-2.2-2.4-3.5
			c-0.4-1-0.7-2-0.8-3.1c0-0.5-0.1-1-0.1-1.4c0.1-2,0.6-3.9,1.8-5.6c1.1-1.5,2.5-2.4,4.3-2.7c0.8-0.1,1.6-0.1,2.4-0.1
			c0.8,0.1,1.6,0.2,2.3,0.5c1.6,0.6,2.8,1.7,3.6,3.1c0.7,1.2,0.7,2.5,0,3.7c-0.1,0.1-0.1,0.2-0.2,0.4c0.1,0.5,0.2,1.1,0.3,1.7
			c0.1,0.4,0.3,0.8,0.5,1.2c0.2,0.2,0.3,0.5,0.4,0.7c0.1,0.3,0.1,0.6-0.1,0.8c-0.4,0.1-0.6-0.1-0.8-0.3c-1.3-1-2.3-2.2-3.1-3.7
			c-0.3-0.5-0.6-0.9-0.9-1.4c-0.8-1.1-1.9-1.4-3.1-1.3c-1.2,0.2-2.2,0.7-2.9,1.8c-0.6,0.9-0.9,2-0.7,3.1c0.3,1.9,1.1,3.4,2.4,4.8
			c0.7,0.8,1.6,1.5,2.4,2.2c1.2,1,2.4,2,3.6,3.1c0.8,0.7,1.5,1.4,2.2,2.1c1.5,1.6,2.9,3.4,3.9,5.4c0.7,1.5,1.3,3.1,1.6,4.8
			C462.4,128.7,462.4,130.1,462.3,131.4z M463.3,121.4c-0.1,0-0.2-0.1-0.4-0.1c0.6-0.3,1.2-0.5,1.6-1c0.4-0.5,0.5-1.1,0.7-1.7
			c0.2,0.6,0.3,1.2,0.7,1.7c0.4,0.5,1,0.7,1.6,0.8c-0.7,0.3-1.3,0.6-1.6,1.1c-0.4,0.5-0.5,1.2-0.7,1.8c0-0.2-0.1-0.3-0.2-0.5
			c-0.2-0.4-0.3-0.8-0.5-1.2C464.3,121.8,463.8,121.5,463.3,121.4z M475.8,190.4c-1.7,5.2-3.3,7.5-5.2,7.5c-2.6,0-3.9-5.2-3.9-15
			c0-16.4,2.3-25.9,9.1-37.2V190.4z M480.6,116c-0.1,0.8-0.3,1.6-0.5,2.4c-0.4,1.4-1.1,2.8-2.1,4c-0.9,1.1-2,2.1-3.2,2.9
			c-0.2,0.2-0.4,0.3-0.6,0.5c-0.2,0.2-0.3,0.4-0.1,0.7c0.2,0.1,0.4,0,0.5-0.1c0.3-0.2,0.6-0.4,1-0.6c0.2-0.1,0.5-0.2,0.7-0.4
			c0.1,0.1,0.2,0.1,0.3,0.1c0.1,0,0.1,0.1,0.2,0.2c0,0.5-0.2,1-0.5,1.4c-0.9,1.2-2,2.3-3.1,3.3c-2,1.7-4.2,3.1-6.4,4.4
			c-0.5,0.3-1.1,0.7-1.7,1.1c0.1-0.3,0.3-0.4,0.4-0.6c1.2-1.3,2.3-2.6,3.3-4c0.8-1,1.5-2.1,2-3.2c0.5-1,1-2.1,1.2-3.2
			c0.1-0.5,0.2-1.1,0.2-1.6c0.1-1.1,0.2-2.2,0.1-3.2c-0.1-1.5-0.3-2.9-1-4.2c-0.8-1.5-2-2.5-3.5-3.2c-0.9-0.4-1.9-0.6-2.9-0.6
			c-0.9,0-1.8,0.3-2.6,0.6c-0.9,0.4-1.8,0.9-2.7,1.4c-0.2,0.1-0.4,0.3-0.7,0.3c-0.1-0.1-0.2-0.2-0.2-0.3c0.1-0.4,0.2-0.6,0.5-0.8
			c0.3-0.2,0.5-0.4,0.8-0.5c1.6-1.1,3.2-2.3,4.7-3.5c0.9-0.7,1.6-1.6,2.4-2.4c1-1.1,1.9-2.2,2.7-3.5c0.5-0.8,1-1.6,1.4-2.4
			c0.3-0.6,0.7-1.3,1.2-1.8c0.3-0.3,0.6-0.5,1-0.7c0.8-0.3,1.6-0.3,2.3,0.2c1.1,0.7,1.9,1.6,2.5,2.7c0.6,1.1,0.9,2.2,1,3.4
			c0,0.5,0.1,1,0.1,1.5c0,1.3-0.4,2.4-1,3.5c-0.5,0.9-1.2,1.8-1.9,2.6c-0.2,0.2-0.5,0.5-0.7,0.7c-0.1,0.1-0.2,0.2-0.2,0.4
			c0.3,0.5,0.6,0.7,1.1,0.3c0.4-0.3,0.7-0.6,1.1-0.7c0.7-0.3,1.4-0.4,2.1-0.2c0.6,0.2,1,0.6,1.1,1.2
			C480.7,114.8,480.7,115.4,480.6,116z"/>
	</defs>
	<use xlink:href="#SVGID_34_"  style="overflow:visible;fill:#FFFFFF;"/>
	<clipPath id="SVGID_35_">
		<use xlink:href="#SVGID_34_"  style="overflow:visible;"/>
	</clipPath>
	<rect x="276" y="0" class="st13" width="256" height="256"/>
</g>
<g>
	<defs>
		<polygon id="SVGID_36_" points="396.1,219.2 408.7,219.2 408.7,186.3 408.7,76 396.1,76 		"/>
	</defs>
	<use xlink:href="#SVGID_36_"  style="overflow:visible;fill:#FFFFFF;"/>
	<clipPath id="SVGID_37_">
		<use xlink:href="#SVGID_36_"  style="overflow:visible;"/>
	</clipPath>
	<rect x="276" y="0" class="st14" width="256" height="256"/>
</g>
<g>
	<defs>
		<rect id="SVGID_38_" x="396.1" y="36.9" width="12.5" height="25.6"/>
	</defs>
	<use xlink:href="#SVGID_38_"  style="overflow:visible;fill:#FFFFFF;"/>
	<clipPath id="SVGID_39_">
		<use xlink:href="#SVGID_38_"  style="overflow:visible;"/>
	</clipPath>
	<rect x="276" y="0" class="st15" width="256" height="256"/>
</g>
<g>
	<defs>
		<path id="SVGID_40_" d="M379.6,154.1l-6.3-78H364l-6,76.6L352.2,76h-20V36.9h-12.5v154.9c0,19.3,4.9,29.4,14.1,29.4
			c2,0,3.6-0.6,7.2-2v-23l-2.3,0.3c-4.5,0-6.5-4-6.5-13.2V99.1h10.6l9.4,120.1h9.5l7.1-82.1l6.8,82.1h9.6L396.1,76h-10.9
			L379.6,154.1z"/>
	</defs>
	<use xlink:href="#SVGID_40_"  style="overflow:visible;fill:#FFFFFF;"/>
	<clipPath id="SVGID_41_">
		<use xlink:href="#SVGID_40_"  style="overflow:visible;"/>
	</clipPath>
	<rect x="276" y="0" class="st16" width="256" height="256"/>
</g>
<g>
	<defs>
		<path id="SVGID_42_" d="M497.5,217.9c-1.1-6.7-1.2-10.4-1.2-21.8v-87.8c0-27.3-8.6-42.3-24.3-42.3c-3,0-5.9,0.7-8.5,2h-3.6V28.9
			h-28.5v37.6c-1.3-0.3-2.7-0.5-4.2-0.5c-3.9,0-7.5,0.9-10.6,2.7V68V28.9h-28.5V68h-47.9V28.9h-28.5v162.9c0,14,2.9,37.4,22.1,37.4
			c3.5,0,6.2-1,10.2-2.6l0.8-0.3l0.1,0.9h43.3h4.5h24.1V227c2.7,1.4,5.6,2.1,8.8,2.1c5.2,0,10.1-2.2,14-6.2c4.4,5,9.8,6.2,14,6.2
			c2.3,0,4.2-0.4,6.3-1.1c1.7,0.7,3.5,1.1,5.4,1.1c2.6,0,5-0.7,7.3-2H499L497.5,217.9z M416.7,164.7c1.6,3.4,2.8,6.1,3.6,8.4
			l-3.6,0.5V164.7z M392.1,32.9h20.5v33.6h-20.5V32.9z M392.1,180.8 M411.5,223.2h-18.6l-0.8-42.4l-4,42.4h-16.3l-3.2-38.4
			l-3.3,38.4h-16.9l-9.4-120.1h-2.9v80.1c0,3.4,0.3,9,2.3,9.2l6.5-0.8v30.3l-2.5,1c-3.8,1.5-5.9,2.3-8.7,2.3
			c-8.3,0-18.1-5.8-18.1-33.4V32.9h20.5V72h19.7l2.1,28.5l2.3-28.5h16.6l2.4,29.7l2.1-29.7h30.8l4.4,1.4c2.9-2.3,6.5-3.4,10.6-3.4
			c2.6,0,5,0.7,7.3,2h0.9V32.9h20.5V72h8.6c2.3-1.3,4.8-2,7.5-2c17.6,0,20.3,24,20.3,38.3v87.8c0,11.7,0.1,15.4,1.2,22.4l0.7,4.6
			h-21.1l-0.2-1.6c-2.1,2.2-4.6,3.6-7.8,3.6c-1.8,0-3.6-0.5-5.1-1.5c-2.5,1-4.3,1.5-6.5,1.5c-4.5,0-10-1.8-13.7-9
			c-3.7,5.8-8.6,9-14.2,9c-3.3,0-6.3-1-8.8-2.8L411.5,223.2z M412.7,178.3l12.5-1.8l-0.3,4.9c-0.1,2.2-0.1,3-0.1,4.4
			c0,3.3,0.3,5.5,0.7,6.9c0.4-1.4,0.8-3.6,0.8-6.9c0-7.9-0.9-12.1-6.8-24.5l-2.8-5.7l-4,0.9 M341.7,188l-1.2,0.2
			c-0.2-1-0.3-2.6-0.3-5v-14.9L341.7,188z"/>
	</defs>
	<use xlink:href="#SVGID_42_"  style="overflow:visible;fill:#FFFFFF;"/>
	<clipPath id="SVGID_43_">
		<use xlink:href="#SVGID_42_"  style="overflow:visible;"/>
	</clipPath>
	<rect x="276" y="0" class="st17" width="256" height="256"/>
</g>
<path class="st9" d="M436.3,102.9c0.3-1.9,1.4-2.9,3.3-3.1c-0.2-0.1-0.4-0.2-0.6-0.2c-0.5-0.2-0.8-0.4-1.2-0.7
	c-0.6-0.6-1-1.3-1.2-2.1c-0.1-0.2-0.1-0.4-0.1-0.6c0-0.2-0.1-0.3-0.1-0.5c-0.3,1.9-1.2,3.4-3.3,4.1c0.9,0.2,1.6,0.5,2.2,1.1
	C435.8,101.4,436.1,102.1,436.3,102.9z"/>
<path class="st9" d="M445.1,91.2c0.1,0.3,0.3,0.6,0.4,1c0.1,0.1,0.1,0.3,0.1,0.4c0,0.6,0.3,1.1,0.7,1.6c2.3-0.9,4.6-0.7,7-0.1
	c0.3-0.3,0.4-0.6,0.5-0.9c0.1-0.3,0.2-0.6,0.4-0.9c0.2-0.3,0.3-0.6,0.5-0.9c0.1-0.3,0.2-0.6,0.3-1c0,0,0-0.1-0.1-0.2
	c-0.1-0.2-0.3-0.3-0.5-0.3c-0.2,0-0.4,0.2-0.4,0.4c0,0,0,0.1,0,0.1c0,0.4-0.2,0.7-0.4,1c-0.1,0.1-0.2,0.3-0.5,0.3
	c-0.1-0.1-0.2-0.2-0.2-0.3c0-0.6-0.1-1.1,0.1-1.7c0.1-0.3,0.2-0.6-0.1-0.9c-0.3-0.2-0.6-0.2-0.8,0.1c-0.2,0.2-0.1,0.5-0.1,0.8
	c-0.1,0.3-0.3,0.7-0.4,1.1c-0.1,0.2-0.3,0.4-0.6,0.4c-0.3-0.1-0.5-0.3-0.6-0.6c-0.1-0.3-0.1-0.6-0.2-0.8c0-0.3-0.1-0.6,0-0.9
	c0-0.1,0-0.2,0-0.3c0-0.3-0.2-0.5-0.5-0.6c-0.2,0-0.5,0.1-0.6,0.3c-0.1,0.1-0.1,0.2-0.1,0.4c0.1,0.2,0.2,0.4,0.4,0.7
	c0,0.4,0,0.8-0.1,1.2c-0.1,0.4-0.2,0.7-0.6,0.9c-0.9-0.2-0.9-0.9-1.2-1.5c0.3-0.6,0.2-0.9-0.3-1c-0.5,0.2-0.5,0.2-0.7,0.7
	c0.1,0.2,0.2,0.3,0.4,0.6c0,0.5,0.1,1.1-0.2,1.7c-0.5,0-0.8-0.2-1-0.8c0.1-0.2,0.2-0.5,0-0.7c-0.5-0.3-0.7-0.3-1.1,0.2
	c0,0.1,0,0.3,0,0.5C444.7,90.9,444.9,91,445.1,91.2z"/>
<path class="st9" d="M465.2,124c0.2-0.6,0.3-1.3,0.7-1.8c0.4-0.6,1-0.8,1.6-1.1c-0.7-0.2-1.2-0.4-1.6-0.8c-0.4-0.5-0.5-1-0.7-1.7
	c-0.2,0.7-0.3,1.2-0.7,1.7c-0.4,0.5-0.9,0.7-1.6,1c0.2,0.1,0.3,0.1,0.4,0.1c0.5,0.2,1,0.5,1.3,1c0.2,0.4,0.3,0.8,0.5,1.2
	C465.1,123.7,465.2,123.9,465.2,124z"/>
<path class="st9" d="M460.5,122.5c-1-2-2.3-3.8-3.9-5.4c-0.7-0.7-1.4-1.4-2.2-2.1c-1.2-1-2.4-2.1-3.6-3.1c-0.8-0.7-1.7-1.4-2.4-2.2
	c-1.3-1.3-2.1-2.9-2.4-4.8c-0.2-1.1,0.1-2.1,0.7-3.1c0.7-1.1,1.7-1.6,2.9-1.8c1.3-0.2,2.4,0.2,3.1,1.3c0.3,0.4,0.6,0.9,0.9,1.4
	c0.8,1.5,1.8,2.7,3.1,3.7c0.2,0.2,0.5,0.4,0.8,0.3c0.2-0.3,0.2-0.5,0.1-0.8c-0.1-0.3-0.3-0.5-0.4-0.7c-0.3-0.4-0.5-0.7-0.5-1.2
	c-0.1-0.6-0.2-1.2-0.3-1.7c0.1-0.2,0.2-0.3,0.2-0.4c0.7-1.2,0.7-2.5,0-3.7c-0.8-1.5-2-2.5-3.6-3.1c-0.7-0.3-1.5-0.4-2.3-0.5
	c-0.8-0.1-1.6-0.1-2.4,0.1c-1.8,0.3-3.2,1.2-4.3,2.7c-1.2,1.7-1.7,3.6-1.8,5.6c0,0.5,0,1,0.1,1.4c0.1,1.1,0.4,2.1,0.8,3.1
	c0.6,1.3,1.4,2.5,2.4,3.5c1,1,2,2,3.1,3c1,1,2,2,2.9,3.2c1.3,1.6,2.3,3.4,3,5.3c0.6,1.5,1,3,1.2,4.6c0,0.4,0.1,0.7,0.1,1.1
	c0.1,0.8,0.1,1.6,0.1,2.5c0,0.5,0,1-0.1,1.4c-0.1,0.7-0.1,1.3-0.2,2c-0.3,1.7-1,3.3-1.9,4.7c-0.9,1.4-2,2.6-3.2,3.7
	c0,0-0.1,0.1-0.2,0.1c-0.1-0.1-0.2-0.2-0.3-0.3c-0.6-0.7-1.4-1.3-2.1-1.8c-1-0.7-2-1.4-3.1-2c-1.7-1-3.5-1.8-5.3-2.6
	c-1.7-0.8-3.5-1.5-5.1-2.5c-1.9-1.2-3.7-2.5-5.1-4.3c-0.8-0.9-1.4-2-1.9-3.1c-0.7-1.4-1.1-2.8-1.2-4.4c-0.1-0.8-0.1-1.5,0.1-2.3
	c0.3-1.6,1-3.1,2-4.4c1-1.2,2.2-1.9,3.7-2.2c1-0.2,2-0.2,3-0.1c1.3,0.2,2.5,0.5,3.6,0.9c0.9,0.3,1.8,0.8,2.6,1.2
	c1.8,0.9,3.3,2.1,4.7,3.5c1.2,1.3,2.2,2.7,3,4.3c0.8,1.6,1.1,3.2,1.2,4.9c0.1,0.8,0.1,1.6-0.1,2.4c-0.1,0.9-0.4,1.8-0.9,2.6
	c-0.4,0.7-1,1.2-1.6,1.6c-0.7-0.4-1.3-0.8-1.9-1.2c-0.6-0.3-1.1-0.6-1.7-0.9c-1.3-0.7-2.4-1.6-3.3-2.8c-1.2-1.6-1.4-3.5-0.4-5.3
	c0.8-1.4,2.3-1.8,3.7-1.1c0.3,0.2,0.5,0.4,0.8,0.6c0-0.1,0-0.2,0-0.3c-0.1-0.5-0.1-0.9-0.2-1.4c-0.5-2.1-1.7-3.5-3.7-4.3
	c-1.3-0.5-2.6-0.7-4-0.7c-2.1,0-3.8,0.9-5,2.6c-1.1,1.6-1.5,3.4-1.3,5.4c0.1,1.7,1,3.1,2.2,4.2c1.2,1.2,2.6,2,4.1,2.7
	c1.3,0.6,2.6,1.2,4,1.7c1.5,0.5,2.9,1.1,4.2,1.9c1.3,0.7,2.5,1.6,3.5,2.6c0.3,0.3,0.5,0.5,0.8,0.8c0.1,0.1,0.3,0.2,0.4,0.3
	c0.3-0.1,0.6-0.3,0.7-0.5c0.4-0.8,0.8-1.5,1.1-2.3c0.6-1.5,1-3.1,1.2-4.7c0.1-1.2,0.2-2.4,0-3.6c-0.1-1.4-0.5-2.9-1-4.2
	c-0.8-2-1.8-3.8-3.1-5.5c-1.5-1.8-3.2-3.4-5.2-4.6c-1.4-0.9-2.8-1.7-4.3-2.6c-2.3-1.4-4.6-2.8-6.9-4.3c-1.3-0.9-2.4-1.8-3.5-3
	c-0.9-1-1.7-2.1-2.6-3.1c-0.4-0.5-0.8-1-1.3-1.3c-1-0.8-2.1-1-3.3-0.6c-0.9,0.2-1.5,0.8-2.1,1.5c-0.6,0.8-1,1.7-1.3,2.7
	c-0.4,1.4-0.6,2.7-0.3,4.2c0.3,1.7,1,3.2,2.1,4.6c0.6,0.7,1.3,1.3,2,1.8c0.5,0.3,0.9,0.7,1.4,1c0.2,0.1,0.3,0.3,0.4,0.5
	c-0.1,0.1-0.1,0.2-0.2,0.3c-0.2,0-0.3,0-0.5,0c-0.2-0.2-0.4-0.3-0.6-0.5c-0.8-0.6-1.6-1.2-2.4-1.8c-0.8-0.6-1.9-0.8-2.9-0.1
	c-0.1,0.2-0.3,0.5-0.4,0.9c-0.4,1-0.5,2-0.4,3.1c0.1,0.9,0.3,1.7,0.7,2.5c0.5,0.9,1.1,1.8,1.8,2.7c0.9,1.2,2,2.3,3.5,3
	c0.5,0.3,1.1,0.6,1.6,0.9c0.2,0.1,0.4,0.2,0.4,0.5c-0.1,0.2-0.3,0.2-0.5,0.1c-0.2-0.1-0.5-0.2-0.7-0.3c-0.3-0.2-0.6-0.4-0.9-0.6
	c-0.4-0.2-0.8-0.5-1.3-0.4c-0.2,0.1-0.3,0.3-0.3,0.5c0,0.3,0.1,0.6,0.2,0.9c0.4,0.9,1.1,1.6,1.7,2.3c0.5,0.5,1,1,1.6,1.5
	c0.9,0.8,1.8,1.5,2.8,2.2c1.6,1.1,3.3,2.1,5.1,2.9c1.9,0.9,3.8,1.8,5.7,2.7c2,0.9,4,1.8,6,2.9c1.7,0.9,3.1,2,4.5,3.3
	c0.5,0.5,1.1,1,1.6,1.6c0.1,0.1,0.2,0.2,0.4,0.3c0.1-0.1,0.1-0.1,0.1-0.1c0.6-0.7,1.3-1.3,2.1-1.9c1-0.7,2-1.4,3-2.1
	c0.9-0.6,1.7-1.4,2.5-2.2c0.6-0.6,1.1-1.2,1.6-1.8c0.9-1.2,1.6-2.6,2-4c0.2-0.9,0.4-1.7,0.5-2.7c0.1-1.4,0.1-2.8-0.2-4.1
	C461.8,125.7,461.2,124.1,460.5,122.5z"/>
<path class="st18" d="M453.3,99.9c0.2,0,0.4,0,0.5,0c0.4,0.3,0.7,0.6,0.8,1c0.2,0.3,0.3,0.6,0.4,0.9c0.1,0.2,0.1,0.4-0.2,0.7
	c-0.1-0.1-0.3-0.1-0.4-0.2c-0.4-0.4-0.7-0.9-1-1.3c-0.1-0.2-0.2-0.4-0.2-0.6C453.2,100.2,453.3,100.1,453.3,99.9z"/>
<path class="st18" d="M425.9,110.5c-0.1-0.5-0.3-0.9-0.6-1.4c-0.4-0.5-0.8-0.9-1.5-1.1c-0.2,0-0.3-0.1-0.6-0.2
	c0.1,0,0.2-0.1,0.2-0.1c1.2-0.3,2-1.1,2.3-2.3c0.1-0.2,0.1-0.5,0.2-0.8c0.1,0.1,0.1,0.2,0.1,0.3c0.1,0.4,0.2,0.8,0.4,1.1
	c0.4,0.8,1.1,1.2,1.9,1.5c0.1,0,0.2,0.1,0.4,0.1c-0.8,0.3-1.5,0.7-2,1.4c-0.4,0.7-0.6,1.4-0.7,2.2c0,0-0.1,0-0.1,0
	C426,111,426,110.8,425.9,110.5z"/>
<path class="st9" d="M479.4,113c-0.7-0.2-1.4-0.1-2.1,0.2c-0.4,0.2-0.8,0.5-1.1,0.7c-0.4,0.3-0.8,0.2-1.1-0.3
	c0.1-0.1,0.1-0.3,0.2-0.4c0.2-0.3,0.5-0.5,0.7-0.7c0.7-0.8,1.4-1.6,1.9-2.6c0.6-1.1,1-2.3,1-3.5c0-0.5,0-1-0.1-1.5
	c-0.1-1.2-0.4-2.3-1-3.4c-0.6-1.1-1.4-2-2.5-2.7c-0.7-0.5-1.5-0.5-2.3-0.2c-0.4,0.2-0.7,0.4-1,0.7c-0.5,0.5-0.9,1.1-1.2,1.8
	c-0.4,0.8-0.9,1.7-1.4,2.4c-0.8,1.2-1.7,2.4-2.7,3.5c-0.8,0.8-1.5,1.6-2.4,2.4c-1.5,1.3-3.1,2.5-4.7,3.5c-0.3,0.2-0.5,0.4-0.8,0.5
	c-0.3,0.2-0.4,0.4-0.5,0.8c0.1,0.1,0.2,0.2,0.2,0.3c0.3,0,0.5-0.2,0.7-0.3c0.8-0.6,1.7-1.1,2.7-1.4c0.8-0.3,1.7-0.6,2.6-0.6
	c1-0.1,2,0.2,2.9,0.6c1.5,0.7,2.7,1.7,3.5,3.2c0.7,1.3,1,2.7,1,4.2c0,1.1,0,2.2-0.1,3.2c-0.1,0.5-0.1,1.1-0.2,1.6
	c-0.2,1.1-0.7,2.2-1.2,3.2c-0.6,1.1-1.3,2.2-2,3.2c-1,1.4-2.1,2.7-3.3,4c-0.1,0.2-0.3,0.3-0.4,0.6c0.6-0.4,1.2-0.7,1.7-1.1
	c2.2-1.4,4.4-2.7,6.4-4.4c1.2-1,2.2-2.1,3.1-3.3c0.3-0.4,0.5-0.9,0.5-1.4c-0.1-0.1-0.1-0.1-0.2-0.2c-0.1,0-0.1-0.1-0.3-0.1
	c-0.2,0.1-0.5,0.2-0.7,0.4c-0.3,0.2-0.6,0.4-1,0.6c-0.1,0.1-0.3,0.2-0.5,0.1c-0.2-0.3-0.1-0.5,0.1-0.7c0.2-0.2,0.4-0.4,0.6-0.5
	c1.2-0.8,2.3-1.8,3.2-2.9c0.9-1.2,1.6-2.5,2.1-4c0.2-0.8,0.4-1.6,0.5-2.4c0.1-0.6,0.1-1.2,0-1.8C480.4,113.6,480,113.2,479.4,113z"
	/>
<path class="st9" d="M470.6,197.8c1.9,0,3.5-2.3,5.2-7.5v-44.6c-6.8,11.2-9.1,20.7-9.1,37.2C466.7,192.7,468,197.8,470.6,197.8z"/>
</svg>
