<?xml version="1.0" encoding="utf-8"?>
<!-- Generator: Adobe Illustrator 24.1.2, SVG Export Plug-In . SVG Version: 6.00 Build 0)  -->
<svg version="1.1" id="レイヤー_1" xmlns="http://www.w3.org/2000/svg" xmlns:xlink="http://www.w3.org/1999/xlink" x="0px"
	 y="0px" viewBox="0 0 512 512" style="enable-background:new 0 0 512 512;" xml:space="preserve">
<style type="text/css">
	.st0{fill-rule:evenodd;clip-rule:evenodd;fill:#FFFFFF;}
	.st1{fill-rule:evenodd;clip-rule:evenodd;fill:#96D04A;}
</style>
<g transform="matrix(0.898356,0,0,0.898356,-130.722,-120.968)">
	<g transform="matrix(0.5,0.866025,-0.866025,0.5,288,-166.277)">
		<path class="st0" d="M600.6-101.7c-4.5-7.8-12.9-12.6-21.9-12.6s-17.4,4.8-21.9,12.6c-12.8,22.2-28.5,49.5-39.9,69
			c-9.1,15.8-9.1,35.2,0,51c11.2,19.6,27,46.9,39.8,69c4.5,7.8,12.9,12.8,21.9,12.8c9.1,0,17.4-4.8,21.9-12.8
			c12.8-22.1,28.5-49.4,39.8-69c9.1-15.8,9.1-35.2,0-51C629.1-52.2,613.3-79.5,600.6-101.7z"/>
	</g>
	<g transform="matrix(1,0,0,1,-96,166.277)">
		<path class="st0" d="M548.4,335.6c-4.5-7.8-12.9-12.6-21.9-12.6c-9.1,0-17.4,4.8-21.9,12.6c-12.8,22.2-28.5,49.5-39.9,69
			c-9.1,15.8-9.1,35.2,0,51c11.2,19.6,27,46.9,39.8,69c4.5,7.8,12.9,12.8,21.9,12.8c9.1,0,17.4-4.8,21.9-12.8
			c12.8-22.1,28.5-49.4,39.8-69c9.1-15.8,9.1-35.2,0-51C576.9,385,561.2,357.7,548.4,335.6z"/>
	</g>
	<g transform="matrix(0.5,-0.866025,0.866025,0.5,-96,498.831)">
		<path class="st0" d="M353.8,145.2c-4.5-7.8-12.9-12.6-21.9-12.6s-17.4,4.8-21.9,12.6c-12.8,22.2-28.5,49.5-39.9,69
			c-9.1,15.8-9.1,35.2,0,51c11.2,19.6,27,46.9,39.8,69c4.5,7.8,12.9,12.8,21.9,12.8s17.4-4.8,21.9-12.8c12.8-22.1,28.5-49.4,39.8-69
			c9.1-15.8,9.1-35.2,0-51C382.3,194.5,366.5,167.2,353.8,145.2z"/>
	</g>
	<g transform="matrix(1,0,0,1,-95.9902,55.4086)">
		<path class="st1" d="M548.4,92.8c-4.5-7.8-12.9-12.6-21.9-12.6s-17.4,4.8-21.9,12.6c-12.8,22.2-28.5,49.5-39.9,69
			c-9.1,15.8-9.1,35.2,0,51c11.2,19.6,27,46.9,39.8,69c4.5,7.8,12.9,12.8,21.9,12.8s17.4-4.8,21.9-12.8c12.8-22.1,28.5-49.4,39.8-69
			c9.1-15.8,9.1-35.2,0-51C576.9,142.3,561.2,115.1,548.4,92.8z M531.8,102.4c-1.1-1.9-3.2-3.2-5.3-3.2c-2.2,0-4.3,1.2-5.3,3.2
			c-12.8,22.2-28.5,49.5-39.9,69c-5.6,9.9-5.6,21.9,0,31.8c11.2,19.6,27,46.9,39.8,69c1.1,1.9,3.2,3.2,5.5,3.2
			c2.2,0,4.3-1.2,5.5-3.2c12.8-22.1,28.5-49.4,39.8-69c5.6-9.9,5.6-21.9,0-31.8L531.8,102.4z"/>
	</g>
	<g transform="matrix(0.5,-0.866025,0.866025,0.5,-2.64322e-11,554.256)">
		<path class="st1" d="M353.8,387.8c-4.5-7.8-12.9-12.6-21.9-12.6s-17.4,4.8-21.9,12.6c-12.8,22.2-28.5,49.5-39.9,69
			c-9.1,15.8-9.1,35.2,0,51c11.2,19.6,27,46.9,39.8,69c4.5,7.8,12.9,12.8,21.9,12.8s17.4-4.8,21.9-12.8c12.8-22.1,28.5-49.4,39.8-69
			c9.1-15.8,9.1-35.2,0-51C382.3,437.1,366.5,409.9,353.8,387.8z M337.2,397.2c-1.1-1.9-3.2-3.2-5.3-3.2s-4.3,1.2-5.3,3.2
			c-12.8,22.2-28.5,49.5-39.9,69c-5.6,9.9-5.6,21.9,0,31.8c11.2,19.6,27,46.9,39.8,69c1.1,1.9,3.2,3.2,5.5,3.2s4.3-1.2,5.5-3.2
			c12.8-22.1,28.5-49.4,39.8-69c5.6-9.9,5.6-21.9,0-31.8L337.2,397.2z"/>
	</g>
	<g transform="matrix(0.5,0.866025,-0.866025,0.5,192,-110.851)">
		<path class="st1" d="M600.6,140.9c-4.5-7.8-12.9-12.6-21.9-12.6s-17.4,4.8-21.9,12.6c-12.8,22.2-28.5,49.5-39.9,69
			c-9.1,15.8-9.1,35.2,0,51c11.2,19.6,27,46.9,39.8,69c4.5,7.8,12.9,12.8,21.9,12.8c9.1,0,17.4-4.8,21.9-12.8
			c12.8-22.1,28.5-49.4,39.8-69c9.1-15.8,9.1-35.2,0-51C629.1,190.4,613.3,163.1,600.6,140.9z M584,150.5c-1.1-1.9-3.2-3.2-5.3-3.2
			c-2.2,0-4.3,1.2-5.3,3.2c-12.8,22.2-28.5,49.5-39.9,69c-5.6,9.9-5.6,21.9,0,31.8c11.2,19.6,27,46.9,39.8,69
			c1.1,1.9,3.2,3.2,5.5,3.2c2.2,0,4.3-1.2,5.5-3.2c12.8-22.1,28.5-49.4,39.8-69c5.6-9.9,5.6-21.9,0-31.8L584,150.5z"/>
	</g>
</g>
</svg>
