<svg xmlns="http://www.w3.org/2000/svg" viewBox="0 0 512 512"><style>.prefix__st0{fill:#fae1e7}.prefix__st1{fill:#f6b8bd}.prefix__st2{fill:#f0888f}</style><path class="prefix__st0" d="M43.9 328.5s-12.1-60 7.6-79l421.1 11.4s11.2 65.9-14.5 103c0-.1-325.6 115.2-414.2-35.4z"/><path class="prefix__st1" d="M33.4 239.7s-4.5 19.7 15.9 29.5c0 0 1.1 12.9 20.1 10.6 0 0-3.8 14.8 15.5 15.9 0 0 5.3 17 23.5 9.1 0 0 5.3 13.9 22 6.4 0 0 10.2 12.5 23.5 4.9 0 0 8.3 15.1 27.3 9.9 0 0 10.6 13.6 25.7 3.8 0 0 11.7 13.4 28.8 5.3 0 0 14.4 11.7 29.5 1.2 0 0 10.6 10.5 28.8.6 0 0 11.4 11.8 30.3 2.7 0 0 19.7 9.5 30.3-2.2 0 0 16.3 7.9 26.5-3.8 0 0 12.5 9.7 26.1-3.1 0 0 17.8.1 23.1-9 0 0 18.2 2.3 25-9.8 0 0 14.4-4.5 14.4-15.1 0 0 21.2-15.1 15.1-29.5 0 0 9.8-34.8-15.9-59.8-25.7-25-84-76-176.4-79.8-92.5-3.9-201.5-1.3-237.9 85.7 0 0-21.4 15.9-21.2 26.5z"/><path class="prefix__st1" d="M60.5 234.7s-3.2 18.7 16.5 26.9c0 0 2.3 14.8 19.9 11.7 0 0-4.5 8.8 14.9 11.3 0 0 7 11 22.5 7.3 0 0 6.9 9.6 18.9 6.1 0 0 13.2 6.4 24.3 2.2 0 0 12 10 26.1 7.8 0 0 13.1 5 24.3 2.2 0 0 16.1 8.3 27.3 3.5 0 0 18.6 1.9 27.8-.4 0 0 13.1 5.9 27-.9 0 0 18.1 5.8 28.6.9 0 0 23 3.7 28.3-3.7 0 0 15.2 4.1 24.7-4.9 0 0 18.7 2.5 21.9-4.1 0 0 19.2-1.1 23.7-9.9 0 0 17.2 1.2 22.9-10.6 0 0 13.3-5 12.7-15"/><path class="prefix__st2" d="M60.5 234.7c-.1.7-.1 1.4-.1 2.1 0 .7.1 1.4.1 2.1l.3 2.1c.1.3.1.7.2 1 .1.3.2.7.2 1 .1.3.2.7.3 1 .1.3.2.7.3 1 .1.3.2.7.4 1l.4 1 .4.9c.1.3.3.6.5.9.2.3.3.6.5.9l.3.4.3.4c.2.3.4.6.6.8l.6.8c.5.5.9 1 1.4 1.5.5.5 1 .9 1.5 1.4.3.2.5.4.8.6.3.2.5.4.8.6l.8.6c.3.2.6.4.9.5l.4.3.2.1.2.1.9.5c.2.1.3.2.4.2l.5.2.9.4c.6.3 1.3.5 1.9.8l.7.3.2.8.1.3c0 .1.1.2.1.3.1.2.1.5.2.7.2.5.3.9.6 1.4.2.4.4.9.7 1.3.3.4.5.8.8 1.2.3.4.6.8.9 1.1l1 1c.2.1.4.3.6.4l.6.4.6.4.6.3.6.3.3.1c.1 0 .2.1.3.1.2.1.4.2.7.2l.7.2c.2.1.5.1.7.1.2 0 .5.1.7.1l.7.1H93.4c.5-.1 1-.1 1.5-.2l1.5-.3 2.4 3.2c0-.1 0 0 0 0V274c0 .1-.1.3-.1.4v.8c0 .3.1.5.2.7.1.2.2.5.4.7l.3.3.3.3c.1.1.2.2.4.3l.4.3.4.3c.1.1.3.2.5.3.1.1.3.2.5.3.2.1.3.2.5.2.4.2.7.3 1.1.4.2.1.4.1.6.2l.6.2 1.2.3 1.2.3c.4.1.8.2 1.2.2l.6.1.6.1c.4.1.8.1 1.3.2l1.3.2 2 1.3.1.1c.1.1.1.2.2.2.1.2.3.3.4.5l.9.9c.3.3.7.6 1 .9.2.1.4.3.5.4.2.1.4.3.6.4.2.1.4.2.6.4l.3.2.3.2.6.3.6.3c.4.2.8.3 1.2.5l.6.2c.2.1.4.1.6.2l.3.1.3.1c.2 0 .4.1.6.1l.7.1c.2 0 .4.1.7.1h.6l.7.1h2l.7-.1c.5 0 .9-.1 1.4-.2s.9-.2 1.4-.2c.5-.1.9-.2 1.4-.3l3.5 1.3.1.1.2.2c.1.1.2.3.4.4.2.3.5.5.8.7.3.2.6.5.8.7l.4.3.4.3.5.3.5.3c.3.2.6.3.9.5.2.1.3.1.5.2s.3.1.5.2c.3.1.7.2 1 .4l.5.1c.2 0 .3.1.5.1s.3.1.5.1.3.1.5.1l.5.1h1.6c.3 0 .7 0 1-.1l.5-.1.5-.1c.3 0 .7-.1 1-.2.3-.1.7-.2 1-.3l1.3-.4 1.3.6.3.1.3.1.6.3c.4.2.9.3 1.3.5.5.2.9.3 1.4.4.5.1.9.3 1.4.4 1.8.5 3.7.9 5.6 1 1.8.2 3.7.2 5.4.1l.7-.1.6-.1c.2 0 .4-.1.6-.1.2 0 .4-.1.6-.1l.6-.2c.2-.1.4-.1.6-.2.4-.1.8-.3 1.2-.4l2.2-.7 1.9 1.4.2.2.3.2c.2.1.4.3.6.4.4.3.9.6 1.3.9.4.3.9.5 1.4.8.5.3.9.5 1.4.8.5.2.9.5 1.4.7.2.1.5.2.7.3.2.1.5.2.7.3l1.5.6c.5.2 1 .3 1.5.5.2.1.5.2.7.2.2.1.5.1.7.2l.7.2c.2.1.5.1.7.2.2.1.5.1.7.1.2 0 .5.1.7.1.5.1 1 .1 1.5.2s1 .1 1.5.1h2.2l.7-.1h.4l.4-.1.7-.1 1.1-.2 1.1.4.3.1.3.1c.2.1.4.1.7.2l.7.2.7.2c.5.1.9.2 1.4.4.5.1.9.2 1.4.3.5.1.9.2 1.4.3.5.1.9.2 1.4.3l.7.1.7.1c.5.1.9.1 1.4.2l1.4.1c.5 0 .9 0 1.4.1h2.8l1.3-.1c.2 0 .4 0 .7-.1l.7-.1.7-.1c.2 0 .4-.1.6-.1l1.3-.3 1.7-.3 1.5.7.3.1.3.2.7.3 1.5.6 1.5.6c.5.2 1 .4 1.5.5.5.2 1 .3 1.5.5s1 .3 1.6.4c.5.1 1 .3 1.6.4l1.5.3c2.1.4 4.1.5 6 .4.2 0 .5 0 .7-.1h.7c.2 0 .5-.1.7-.1l.7-.1c.2 0 .4-.1.6-.2.1 0 .2 0 .3-.1l.3-.1c.4-.1.8-.3 1.2-.4l1.2-.5 1.1.1 1.6.1 1.7.1 1.7.1c.6 0 1.1.1 1.7.1.6 0 1.1.1 1.7.1l1.7.1h6.8l1.6-.1c.6 0 1.1-.1 1.6-.1l.8-.1.8-.1.8-.1h.4c.1 0 .3 0 .4-.1.5-.1 1-.1 1.5-.2l1.4-.3 1.5-.3 1.4.6.2.1.3.1c.2.1.4.2.7.2.5.2.9.3 1.4.4.5.1 1 .3 1.5.4l1.5.3c.5.1 1 .2 1.5.2l.8.1.8.1c.5 0 1 .1 1.5.1H298c.3 0 .5 0 .8-.1.2 0 .5 0 .7-.1.5-.1 1-.1 1.5-.2l1.5-.3c.2-.1.5-.1.7-.2.2-.1.5-.1.7-.2l.7-.2c.2-.1.5-.2.7-.2.5-.2.9-.4 1.4-.5.5-.2.9-.4 1.4-.6l1.7-.7 1.6.5.4.1.4.1.8.2c.5.2 1.1.3 1.7.4 1.1.3 2.2.5 3.3.8.6.1 1.1.2 1.7.3.6.1 1.1.2 1.7.3.6.1 1.1.2 1.7.2.6.1 1.1.1 1.7.2.6.1 1.1.1 1.7.1h3.2c.5 0 1.1 0 1.6-.1.3 0 .5 0 .8-.1.3 0 .5-.1.8-.1l.8-.1c.2 0 .5-.1.7-.2.2 0 .5-.1.7-.2.2-.1.5-.1.7-.2.2-.1.5-.1.7-.2l.6-.3 1.3-.5 1.1.2.8.1.9.1c.6.1 1.2.2 1.7.2 1.2.1 2.3.3 3.5.3 2.3.2 4.7.3 7 .2 1.1 0 2.3-.1 3.4-.2s2.2-.3 3.2-.5 1.9-.5 2.7-.9c.4-.2.7-.4 1-.6.3-.2.5-.4.6-.6l1.6-2 2.3.6.3.1.3.1c.2.1.5.1.7.2.5.1 1 .2 1.4.3.5.1 1 .1 1.5.2s1 .1 1.5.1 1 .1 1.5.1h1.5c.5 0 1 0 1.5-.1.2 0 .5 0 .7-.1.2 0 .5 0 .7-.1.2 0 .5-.1.7-.1l.7-.1c.2 0 .5-.1.7-.2l.3-.1.3-.1c.5-.1.9-.3 1.3-.4.2-.1.4-.2.7-.2l.3-.1.3-.1.6-.3.6-.3.6-.3c.2-.1.4-.2.6-.4l.6-.4.5-.4.3-.2.3-.2.5-.4 1.2-1.1 1.4.2.6.1.7.1c.5.1.9.1 1.4.1.9.1 1.8.2 2.8.2 1.8.1 3.7.1 5.5 0 1.8-.1 3.5-.3 5.1-.8.8-.2 1.5-.5 2-.8.3-.2.5-.3.7-.5.2-.2.3-.3.4-.5l.8-1.4 1.4-.1h.8l.8-.1c.5 0 1.1-.1 1.6-.1 1.1-.1 2.1-.2 3.2-.4.5-.1 1-.2 1.6-.3.5-.1 1-.2 1.6-.3.5-.1 1-.2 1.5-.4l.8-.2.8-.2c.3-.1.5-.2.7-.2.2-.1.5-.2.7-.2.5-.2 1-.4 1.4-.5.5-.2.9-.4 1.4-.6.5-.2.9-.5 1.3-.7l.6-.4c.2-.1.4-.3.6-.4.2-.1.4-.3.6-.4.1-.1.2-.1.3-.2l.3-.2.5-.5.2-.3.1-.1.1-.1c.1-.2.3-.3.4-.5l.4-.6.7-1.1 1.1.1h3.1c.5 0 1.1 0 1.6-.1.5 0 1.1-.1 1.6-.1l.8-.1.8-.1c.5-.1 1-.2 1.6-.3.3-.1.5-.1.8-.2.3-.1.5-.1.8-.2.3-.1.5-.1.8-.2l.7-.2 1.5-.6c.2-.1.5-.2.7-.3.2-.1.5-.2.7-.3l.7-.4c.2-.1.4-.3.7-.4.1-.1.2-.1.3-.2l.3-.2c.2-.2.4-.3.6-.5l.6-.5c.2-.2.4-.3.6-.5l.5-.5c.2-.2.4-.4.5-.6l.5-.6c.2-.2.3-.4.5-.6l.2-.3c.1-.1.1-.2.2-.3l.4-.7.2-.4.3-.1c.4-.1.8-.3 1.2-.4.4-.2.8-.3 1.2-.5.8-.4 1.5-.8 2.3-1.2.4-.2.7-.4 1.1-.7.2-.1.4-.2.5-.4.2-.1.4-.2.5-.4.3-.2.7-.5 1-.8.3-.3.7-.5 1-.8.2-.1.3-.3.5-.4.1-.2.3-.3.4-.5l.4-.5.4-.5c.1-.2.3-.3.4-.5l.2-.3.2-.3c.2-.4.4-.7.6-1.1.2-.4.4-.8.5-1.2.1-.2.2-.4.2-.6.1-.2.1-.4.2-.6l.1-.6c.1-.2.1-.4.1-.6.1-.4.1-.9.1-1.3 0 .4.1.9.1 1.3v.7l-.1.7c0 .2-.1.4-.1.7 0 .2-.1.4-.2.6-.1.4-.3.8-.4 1.3l-.6 1.2-.2.3-1 1.1c-.1.2-.2.4-.4.6l-.4.6-.4.5c-.1.2-.3.3-.4.5-.1.2-.3.3-.4.5-.3.3-.6.6-.9 1-.3.3-.7.6-1 .9-.2.1-.3.3-.5.4-.2.1-.3.3-.5.4-.4.3-.7.5-1.1.8-.7.5-1.5 1-2.3 1.4l-1.2.6-1.2.6.5-.5-.4.8c-.1.1-.1.3-.2.4l-.2.4c-.2.3-.3.5-.5.8l-.5.7c-.2.2-.4.5-.5.7-.2.2-.4.5-.6.7l-.6.6-.7.6c-.2.2-.5.4-.7.6l-.3.3c-.1.1-.2.2-.4.3-.2.2-.5.4-.7.5l-.7.5-1.5.9c-.5.3-1.1.5-1.6.8l-.8.3c-.3.1-.5.2-.8.3-.3.1-.6.2-.8.3-.3.1-.6.2-.8.3-.6.2-1.1.3-1.7.4l-.9.2-.9.2c-.6.1-1.1.2-1.7.3-.6.1-1.2.1-1.7.2-.6.1-1.2.1-1.7.1h-1.8l1.8-1-.5.9c-.2.3-.4.6-.5.8l-.1.2-.2.2-.3.4c-.2.3-.4.5-.7.7l-.3.3c-.1.1-.2.2-.4.3-.2.2-.5.4-.7.6-.2.2-.5.4-.7.6l-.8.5c-.5.3-1 .7-1.6.9-.5.3-1.1.6-1.6.8-.5.2-1.1.5-1.6.7-.3.1-.5.2-.8.3-.3.1-.5.2-.8.3l-.8.3-.8.3c-.6.2-1.1.3-1.7.5-.6.2-1.1.3-1.7.4-.6.1-1.1.3-1.7.4-1.1.2-2.3.4-3.4.6-.6.1-1.1.2-1.7.2l-.9.1h-.9l2.2-1.5c-.3.7-.8 1.3-1.2 1.9-.5.5-1 1-1.6 1.4-1.1.8-2.2 1.2-3.3 1.6-1.1.4-2.1.6-3.2.9-1.1.2-2.1.4-3.1.5-2.1.2-4.1.3-6.1.3-1 0-2 0-3-.1-.5 0-1-.1-1.5-.1l-.8-.1c-.3 0-.5 0-.8-.1l2.6-.9-.7.7-.4.3-.4.3c-.2.2-.5.4-.7.6l-.8.6c-.3.2-.5.4-.8.5-.3.2-.5.4-.8.5l-.8.5c-.3.2-.6.3-.8.4l-.4.2-.4.2c-.3.1-.6.3-.9.4l-1.8.6-.4.1-.4.1c-.3.1-.6.2-.9.2l-.9.2c-.3.1-.6.1-.9.2-.3.1-.6.1-.9.1-.3 0-.6.1-.9.1-.3 0-.6.1-.9.1l-.9.1c-.6 0-1.2.1-1.8.1h-1.8c-.6 0-1.2 0-1.8-.1-.6 0-1.2-.1-1.8-.2l-1.8-.3c-.3-.1-.6-.1-.9-.2l-.5-.1c-.2 0-.3-.1-.5-.1l3.9-1.4c-.6.8-1.2 1.5-1.9 2.1-.7.6-1.4 1-2.1 1.4-1.4.8-2.9 1.3-4.2 1.6-2.8.7-5.5 1-8.1 1.2-2.6.1-5.2.1-7.8 0-1.3-.1-2.6-.2-3.8-.3-.6-.1-1.3-.1-1.9-.2l-1-.1-.5-.1-.5-.1 2.4-.3-1 .5c-.3.2-.7.3-1 .4-.4.1-.7.2-1 .3-.3.1-.7.2-1 .3-.3.1-.7.2-1 .2l-1 .2c-.3.1-.7.1-1 .2-.3.1-.7.1-1 .1-.7.1-1.4.1-2 .2-.7 0-1.3.1-2 .1h-2c-.7 0-1.3-.1-2-.1s-1.3-.1-1.9-.2c-.6-.1-1.3-.1-1.9-.2-.6-.1-1.3-.2-1.9-.3-.6-.1-1.3-.2-1.9-.3-1.3-.2-2.5-.5-3.8-.8-.6-.1-1.2-.3-1.9-.5l-.9-.3-.5-.1-.5-.2 3.2-.2c-.6.3-1.2.6-1.8.8-.6.3-1.2.5-1.8.7l-.9.3-.9.3-.9.3c-.3.1-.6.2-1 .3-.6.1-1.3.3-1.9.4-.6.1-1.3.2-1.9.3-.3 0-.7.1-1 .1-.3 0-.7.1-1 .1-.3 0-.7.1-1 .1h-3c-.7 0-1.3 0-2-.1l-1-.1-1-.1c-.6-.1-1.3-.2-1.9-.3-.6-.1-1.3-.2-1.9-.4-.6-.1-1.3-.3-1.9-.5-.6-.2-1.3-.4-1.9-.6-.3-.1-.6-.2-1-.3-.2-.1-.3-.1-.5-.2l-.3-.1-.3-.1 3 .2-2 .4c-.7.1-1.3.2-1.9.3l-.5.1h-.5l-.9.1-.9.1-.9.1c-.6 0-1.2.1-1.8.1l-1.8.1h-7.2l-1.8-.1c-.6 0-1.2-.1-1.8-.1-.6 0-1.2-.1-1.8-.1l-1.8-.1c-.6 0-1.2-.1-1.8-.1-.6-.1-1.2-.1-1.8-.2l2.3-.4c-.7.3-1.4.6-2.1.8l-.5.2c-.2.1-.4.1-.5.1-.4.1-.7.2-1.1.3l-1.1.2c-.4.1-.7.1-1.1.1-.2 0-.4 0-.5.1h-.5c-.3 0-.7.1-1 .1-2.8.1-5.5-.1-8-.6-.6-.1-1.3-.2-1.9-.4-.6-.1-1.3-.3-1.9-.5-.6-.2-1.2-.3-1.9-.5l-1.8-.6-1.8-.6c-.6-.2-1.2-.5-1.8-.7-.6-.2-1.2-.5-1.8-.8l-.9-.4-.4-.2-.5-.3 3.1.4-1.8.4c-.3.1-.6.1-.9.2l-.9.1-.9.1c-.3 0-.6.1-.9.1l-1.7.1h-3.6c-.6 0-1.1-.1-1.7-.1l-1.7-.2c-.6-.1-1.1-.1-1.7-.2l-.8-.1-.8-.1c-.5-.1-1.1-.2-1.6-.3-.5-.1-1.1-.2-1.6-.4-.5-.1-1.1-.3-1.6-.4-.5-.1-1.1-.3-1.6-.4l-.8-.2-.8-.3c-.3-.1-.5-.2-.8-.3l-.4-.1-.5-.2 2.2.2-1 .1-.5.1h-.5l-1 .1h-3c-.7 0-1.3-.1-2-.2s-1.3-.2-2-.3c-.3 0-.7-.1-1-.2-.3-.1-.6-.1-1-.2-.3-.1-.6-.1-1-.2l-.9-.3-.9-.3-.9-.3c-.6-.2-1.2-.4-1.8-.7-.6-.2-1.2-.5-1.8-.7-.3-.1-.6-.3-.9-.4-.3-.1-.6-.3-.9-.4-.6-.3-1.1-.6-1.7-.9-1.1-.6-2.2-1.3-3.3-2-.5-.4-1.1-.7-1.6-1.1-.3-.2-.5-.4-.8-.6l-.4-.3-.2-.2-.2-.2 4 .7-1.8.6c-.3.1-.6.2-.9.2l-.9.2c-.3.1-.6.1-.9.2-.3.1-.6.1-.9.1l-.9.1-.9.1c-2.4.2-4.8.1-7-.2-.3 0-.6-.1-.9-.1-.3 0-.6-.1-.9-.1-.6-.1-1.1-.2-1.7-.3-.6-.1-1.1-.3-1.7-.4-.6-.1-1.1-.3-1.6-.5s-1.1-.3-1.6-.5-1.1-.4-1.6-.6c-.5-.2-1.1-.4-1.6-.6-.3-.1-.5-.2-.8-.3l-.4-.2-.5-.2 2.7.2c-.5.1-1 .3-1.5.4-.5.1-1 .2-1.6.3l-.8.1-.8.1h-3.2c-.3 0-.5-.1-.8-.1l-.8-.1c-.3 0-.5-.1-.8-.2-.3-.1-.5-.1-.8-.2-.3-.1-.5-.1-.8-.2l-.8-.2-1.5-.6c-.2-.1-.5-.2-.7-.3-.2-.1-.5-.2-.7-.4-.5-.2-.9-.5-1.4-.8l-.7-.4-.6-.4-.6-.5c-.2-.2-.4-.3-.6-.5-.4-.3-.8-.7-1.1-1l-1.1-1.1c-.2-.2-.3-.4-.5-.6l-.3-.3-.1-.2-.2-.2 3.5 1.3c-.6.1-1.1.2-1.7.3l-.9.1c-.3 0-.6.1-.9.1-.6.1-1.2.1-1.8.1h-2.6l-.9-.1-.9-.1-.4-.1-.4-.1c-.3-.1-.6-.1-.9-.2l-.9-.2c-.3-.1-.6-.2-.9-.2l-.4-.1-.4-.1-.9-.3-.8-.3c-.6-.2-1.1-.5-1.6-.8-.3-.1-.5-.3-.8-.4-.3-.1-.5-.3-.8-.5l-.4-.2-.4-.3c-.3-.2-.5-.3-.7-.5-.2-.2-.5-.4-.7-.5-.2-.2-.5-.4-.7-.6-.5-.4-.9-.8-1.3-1.2-.4-.4-.8-.9-1.2-1.3-.2-.2-.4-.5-.6-.7-.1-.1-.2-.3-.3-.4l-.1-.2-.2-.3 2 1.3-1.4-.2c-.5-.1-.9-.2-1.4-.3l-.7-.1-.7-.2c-.5-.1-.9-.2-1.4-.4-.5-.1-.9-.2-1.4-.4-.5-.2-.9-.3-1.4-.5l-.7-.3c-.2-.1-.5-.2-.7-.3-.5-.2-.9-.4-1.4-.7-.2-.1-.5-.3-.7-.4-.2-.1-.5-.3-.7-.4-.2-.2-.4-.3-.7-.5l-.7-.5-.6-.6-.6-.6c-.2-.2-.4-.5-.6-.7-.2-.2-.3-.5-.5-.8-.3-.5-.6-1.1-.8-1.7-.2-.6-.3-1.2-.4-1.9 0-.6 0-1.3.1-1.9.1-.3.1-.6.2-.9 0-.2.1-.3.2-.5 0-.1.1-.2.1-.2l.1-.1.1-.2 2.4 3.2-1.7.2c-.6 0-1.2.1-1.8.1h-1.8c-.6 0-1.2 0-1.8-.1-.3 0-.6-.1-.9-.1l-.9-.2c-.3 0-.6-.1-.9-.2-.3-.1-.6-.1-.9-.2l-.9-.3c-.3-.1-.6-.2-.8-.3-.1-.1-.3-.1-.4-.2l-.4-.2c-.3-.1-.6-.3-.8-.4-.3-.2-.5-.3-.8-.5l-.7-.5c-.2-.2-.5-.4-.7-.6-.2-.2-.5-.4-.7-.6-.4-.4-.8-.9-1.2-1.3-.4-.5-.7-1-1.1-1.5-.3-.5-.6-1-.9-1.6-.3-.5-.5-1.1-.7-1.6-.2-.5-.4-1.1-.6-1.7-.1-.3-.2-.6-.2-.9 0-.1-.1-.3-.1-.4 0-.2-.1-.3-.1-.5l.9 1.1c-.7-.3-1.3-.6-2-1l-1-.5-.5-.3c-.2-.1-.3-.2-.5-.3l-.9-.6-.2-.1-.2-.2-.4-.3c-.3-.2-.6-.4-.9-.7l-.9-.7c-.3-.2-.6-.5-.8-.7l-.8-.8c-.5-.5-1-1.1-1.5-1.6-.5-.6-.9-1.2-1.3-1.8l-.6-.9-.6-.9-.3-.5-.2-.5c-.2-.3-.3-.6-.5-1-.1-.3-.3-.7-.4-1l-.4-1-.3-1c-.1-.3-.2-.7-.3-1-.2-.7-.3-1.4-.4-2.1-.1-.4-.1-.7-.2-1.1 0-.4-.1-.7-.1-1.1 0-.7-.1-1.4-.1-2.1 0-.7 0-1.4.1-2.1-.5-.4-.4-1.1-.3-1.8z"/><path class="prefix__st1" d="M41.6 315.5c60.9 60.8 146.4 77.4 229.7 73.3 28.3-1.4 57.6-3.9 85.5-9.3 39.6-7.6 88.4-20.4 115.8-52.4-.2.3 4.4 9.2 4.7 10.4 2.3 7.6 2.7 16.6-4.7 21.4-14.2 9.1-6.2 101.1-232.2 94.3-226-6.8-198.7-88.6-198.7-88.6s-36.4-36.3-.1-49.1"/><path class="prefix__st2" d="M48.5 362.3s1.4.9 4.2 2.5c2.7 1.6 6.8 3.9 12.1 6.5 5.3 2.7 11.8 5.8 19.3 9.1 7.6 3.3 16.2 6.7 25.7 10.1 2.4.9 4.8 1.7 7.3 2.5 1.2.4 2.5.8 3.8 1.2.6.2 1.3.4 1.9.6.6.2 1.3.4 1.9.6l3.9 1.2c1.3.4 2.7.8 4 1.2.7.2 1.4.4 2 .6l2.1.6 4.2 1.2c1.4.4 2.8.7 4.2 1.1l2.1.6c.7.2 1.4.4 2.2.5 1.4.4 2.9.7 4.4 1.1 1.5.3 2.9.7 4.4 1 .7.2 1.5.3 2.2.5.7.2 1.5.3 2.3.5 1.5.3 3 .6 4.5 1 1.5.3 3.1.6 4.6.9.8.2 1.5.3 2.3.5.8.1 1.6.3 2.3.4 1.6.3 3.1.6 4.7.8 1.6.3 3.2.5 4.7.8.8.1 1.6.3 2.4.4.8.1 1.6.2 2.4.4 1.6.2 3.2.5 4.8.7 1.6.2 3.2.4 4.9.6l2.4.3 1.2.2 1.2.1c3.3.3 6.6.7 9.9 1 13.2 1.2 26.7 1.8 40.2 1.8 13.5 0 27-.7 40.2-1.9.8-.1 1.7-.1 2.5-.2s1.6-.2 2.5-.3c1.6-.2 3.3-.4 4.9-.5l2.4-.3 2.4-.3c1.6-.2 3.2-.4 4.9-.6 6.4-.9 12.8-1.9 19-3 12.5-2.2 24.4-4.9 35.6-7.8 11.3-2.9 21.8-6.1 31.4-9.2 2.4-.8 4.8-1.6 7.1-2.3.6-.2 1.1-.4 1.7-.6.6-.2 1.1-.4 1.7-.6l3.3-1.2c1.1-.4 2.2-.8 3.2-1.1.5-.2 1.1-.4 1.6-.6l1.5-.6c2-.8 4-1.5 6-2.3 1-.4 1.9-.7 2.8-1.1.9-.4 1.8-.7 2.7-1.1 1.8-.7 3.5-1.4 5.2-2.1.8-.3 1.6-.7 2.4-1 .4-.2.8-.3 1.2-.5.4-.2.8-.3 1.1-.5 1.5-.6 2.9-1.3 4.3-1.8 1.4-.6 2.7-1.1 3.9-1.7.6-.3 1.2-.5 1.8-.7.6-.3 1.1-.5 1.6-.7 2.1-.9 3.9-1.7 5.3-2.4 2.9-1.3 4.4-2 4.4-2s-1.5.8-4.3 2.2c-1.4.7-3.2 1.6-5.2 2.7-.5.3-1 .5-1.6.8-.6.3-1.1.5-1.7.8-1.2.6-2.5 1.2-3.8 1.8-1.3.6-2.7 1.3-4.2 2-.4.2-.7.4-1.1.5-.4.2-.8.3-1.2.5-.8.4-1.6.7-2.4 1.1-1.6.7-3.3 1.5-5.1 2.3l-2.7 1.2c-.9.4-1.9.8-2.8 1.2-1.9.8-3.9 1.6-5.9 2.5l-1.5.6c-.5.2-1 .4-1.6.6-1.1.4-2.1.8-3.2 1.3-1.1.4-2.2.9-3.3 1.3-.6.2-1.1.4-1.7.7-.6.2-1.1.4-1.7.6-2.3.8-4.6 1.7-7 2.6-.6.2-1.2.4-1.8.7l-1.8.6c-1.2.4-2.5.8-3.7 1.3-1.3.4-2.5.9-3.8 1.3-.6.2-1.3.4-1.9.7-.6.2-1.3.4-2 .6-2.6.8-5.3 1.6-8 2.5-.7.2-1.4.4-2 .6l-2.1.6-4.2 1.2c-11.3 3.1-23.3 6-35.8 8.5-1.6.3-3.1.6-4.7.9-.8.1-1.6.3-2.4.4-.8.1-1.6.3-2.4.4-1.6.3-3.2.5-4.8.8-.8.1-1.6.3-2.4.4l-2.4.3c-1.6.2-3.3.5-4.9.7-.8.1-1.6.2-2.5.3-.8.1-1.6.2-2.5.3-1.6.2-3.3.4-5 .6-.8.1-1.7.2-2.5.3-.8.1-1.7.2-2.5.2-13.3 1.3-27 2-40.6 2.1h-5.2c-1.7 0-3.4 0-5.1-.1-1.7 0-3.4-.1-5.1-.2l-2.5-.1c-.8 0-1.7-.1-2.5-.1l-5.1-.3c-.8 0-1.7-.1-2.5-.1-.8-.1-1.7-.1-2.5-.2-1.7-.1-3.4-.3-5-.4-1.7-.1-3.3-.3-5-.5-13.4-1.3-26.4-3.2-38.9-5.7-.8-.2-1.6-.3-2.3-.5-.8-.2-1.6-.3-2.3-.5-1.5-.3-3.1-.6-4.6-1-1.5-.3-3-.7-4.6-1-.8-.2-1.5-.3-2.3-.5-.7-.2-1.5-.4-2.2-.6-1.5-.4-3-.7-4.4-1.1-1.5-.4-2.9-.8-4.4-1.2-.7-.2-1.4-.4-2.2-.6l-2.1-.6-4.2-1.2c-11.2-3.3-21.7-6.9-31.2-10.6-4.8-1.8-9.3-3.7-13.5-5.5-1.1-.5-2.1-.9-3.1-1.4-1-.5-2-.9-3-1.4-.5-.2-1-.5-1.5-.7-.5-.2-1-.5-1.5-.7-1-.5-1.9-.9-2.9-1.3-3.7-1.8-7.2-3.5-10.4-5.2-3.2-1.7-6.1-3.2-8.6-4.7-1.3-.7-2.5-1.4-3.7-2.1-1.1-.7-2.2-1.3-3.2-1.9-2-1.2-3.6-2.2-5-3.1-2.7-1.6-4-2.6-4-2.6z"/><path class="prefix__st0" d="M345.7 66.3S175.3 64 171.9 109.5c-3.4 45.4 64.7 48.8 117 56.8 52.3 7.8 176.1 37.4 56.8-100z"/><path d="M234.8 55c.1 0 .1-.1 0 0 .1-.1.2-.1.2-.1 6.8-4.2 13.4-7.4 19.7-8.9 1-11.5-6-17.6-6-17.6s-7.8 2-12.3 10.9c-7.1-6.9-15.1-6.4-15.1-6.4s-4.1 6.9-1.1 16.3c-10 .1-15.2 6.1-15.2 6.1s2.3 9 13 13.3c4.2-5 10.1-9.4 16.8-13.6z" fill="#67bc45"/><path d="M254.7 45.9c-6.3 1.5-12.9 4.8-19.7 8.9l-.2.1c-3.4 2.1-6.5 4.2-9.4 6.5-2.8 2.3-5.4 4.6-7.4 7.1-6.9 8.2-8.9 17.8-1.7 29.6 11.6 18.8 42.4 36.1 60.6 25.2l.2-.1c17.9-11.3 16.3-46.7 4.7-65.5-7.2-11.8-16.6-14.3-27.1-11.8z" fill="#ef5037"/><path class="prefix__st0" d="M288 87.8c.9 1.5 1 3 .2 3.5s-2.1-.3-3-1.8c-.9-1.5-1-3-.2-3.5.7-.4 2.1.4 3 1.8zM274.7 116.2c.9 1.5 1 3 .2 3.5s-2.1-.3-3-1.8c-.9-1.5-1-3-.2-3.5.7-.5 2.1.3 3 1.8zM261.4 94.6c.9 1.5 1 3 .2 3.5s-2.1-.3-3-1.8c-.9-1.5-1-3-.2-3.5.7-.4 2.1.4 3 1.8zM244.9 114.7c.9 1.5 1 3 .2 3.5s-2.1-.3-3-1.8c-.9-1.5-1-3-.2-3.5s2.1.3 3 1.8zM223.5 99.7c.9 1.5 1 3 .2 3.5s-2.1-.3-3-1.8c-.9-1.5-1-3-.2-3.5.7-.4 2.1.4 3 1.8zM239.2 90c.9 1.5 1 3 .2 3.5s-2.1-.3-3-1.8c-.9-1.5-1-3-.2-3.5.7-.4 2.1.4 3 1.8zM266.8 73c.9 1.5 1 3 .2 3.5s-2.1-.3-3-1.8c-.9-1.5-1-3-.2-3.5s2.1.3 3 1.8zM284.3 65.9c.9 1.5 1 3 .2 3.5s-2.1-.3-3-1.8c-.9-1.5-1-3-.2-3.5.7-.5 2.1.3 3 1.8zM263.9 52c.9 1.5 1 3 .2 3.5s-2.1-.3-3-1.8c-.9-1.5-1-3-.2-3.5.7-.4 2.1.3 3 1.8zM244.4 64c.8 1.2.9 2.5.5 3.2l-.3.3c-.6.4-1.6 0-2.4-.9-.2-.2-.4-.5-.6-.8-.9-1.5-1-3-.2-3.5s2.1.3 3 1.7zM220.7 78.6c.9 1.5 1 3 .2 3.5s-2.1-.3-3-1.8c-.9-1.5-1-3-.2-3.5.8-.4 2.1.4 3 1.8z"/></svg>