<?xml version="1.0" encoding="utf-8"?>
<!-- Generator: Adobe Illustrator 24.1.2, SVG Export Plug-In . SVG Version: 6.00 Build 0)  -->
<svg version="1.1" id="レイヤー_1" xmlns:serif="http://www.serif.com/"
	 xmlns="http://www.w3.org/2000/svg" xmlns:xlink="http://www.w3.org/1999/xlink" x="0px" y="0px" viewBox="0 0 841.9 595.3"
	 style="enable-background:new 0 0 841.9 595.3;" xml:space="preserve">
<style type="text/css">
	.st0{fill-rule:evenodd;clip-rule:evenodd;fill:#1B1E1F;}
	.st1{fill-rule:evenodd;clip-rule:evenodd;fill:#FFFFFF;}
	.st2{fill-rule:evenodd;clip-rule:evenodd;fill:#4A69D0;}
</style>
<g transform="matrix(0.413372,0,0,0.469741,64.564,40.5821)">
	<rect x="142.1" y="-86.4" class="st0" width="1440" height="1267.2"/>
</g>
<g transform="matrix(0.898356,0,0,0.898356,-130.722,-120.968)">
	<g transform="matrix(0.5,0.866025,-0.866025,0.5,288,-166.277)">
		<path class="st1" d="M726.6-164.1c-3.3-5.7-9.4-9.2-16-9.2c-6.6,0-12.7,3.5-16,9.2c-9.3,16.2-20.8,36.1-29.1,50.3
			c-6.6,11.5-6.6,25.7,0,37.2c8.2,14.3,19.7,34.2,29,50.3c3.3,5.7,9.4,9.3,16,9.3c6.6,0,12.7-3.5,16-9.3c9.3-16.1,20.8-36,29-50.3
			c6.6-11.5,6.6-25.7,0-37.2C747.4-128,735.9-147.9,726.6-164.1z"/>
	</g>
	<g transform="matrix(1,0,0,1,-96,166.277)">
		<path class="st1" d="M726.1,359.7c-3.3-5.7-9.4-9.2-16-9.2c-6.6,0-12.7,3.5-16,9.2c-9.3,16.2-20.8,36.1-29.1,50.3
			c-6.6,11.5-6.6,25.7,0,37.2c8.2,14.3,19.7,34.2,29,50.3c3.3,5.7,9.4,9.3,16,9.3c6.6,0,12.7-3.5,16-9.3c9.3-16.1,20.8-36,29-50.3
			c6.6-11.5,6.6-25.7,0-37.2C746.9,395.7,735.4,375.8,726.1,359.7z"/>
	</g>
	<g transform="matrix(0.5,-0.866025,0.866025,0.5,-96,498.831)">
		<path class="st1" d="M399.5,400.8c-3.3-5.7-9.4-9.2-16-9.2s-12.7,3.5-16,9.2c-9.3,16.2-20.8,36.1-29.1,50.3
			c-6.6,11.5-6.6,25.7,0,37.2c8.2,14.3,19.7,34.2,29,50.3c3.3,5.7,9.4,9.3,16,9.3c6.6,0,12.7-3.5,16-9.3c9.3-16.1,20.8-36,29-50.3
			c6.6-11.5,6.6-25.7,0-37.2C420.3,436.8,408.8,416.9,399.5,400.8z"/>
	</g>
	<g transform="matrix(1,0,0,1,-95.9902,55.4086)">
		<path class="st2" d="M726.1,212.7c-3.3-5.7-9.4-9.2-16-9.2c-6.6,0-12.7,3.5-16,9.2c-9.3,16.2-20.8,36.1-29.1,50.3
			c-6.6,11.5-6.6,25.7,0,37.2c8.2,14.3,19.7,34.2,29,50.3c3.3,5.7,9.4,9.3,16,9.3c6.6,0,12.7-3.5,16-9.3c9.3-16.1,20.8-36,29-50.3
			c6.6-11.5,6.6-25.7,0-37.2C746.9,248.8,735.4,228.9,726.1,212.7z M714,219.7c-0.8-1.4-2.3-2.3-3.9-2.3c-1.6,0-3.1,0.9-3.9,2.3
			c-9.3,16.2-20.8,36.1-29.1,50.3c-4.1,7.2-4.1,16,0,23.2c8.2,14.3,19.7,34.2,29,50.3c0.8,1.4,2.3,2.3,4,2.3c1.6,0,3.1-0.9,4-2.3
			c9.3-16.1,20.8-36,29-50.3c4.1-7.2,4.1-16,0-23.2L714,219.7z"/>
	</g>
	<g transform="matrix(0.5,-0.866025,0.866025,0.5,-2.64322e-11,554.256)">
		<path class="st2" d="M399.5,547.7c-3.3-5.7-9.4-9.2-16-9.2s-12.7,3.5-16,9.2c-9.3,16.2-20.8,36.1-29.1,50.3
			c-6.6,11.5-6.6,25.7,0,37.2c8.2,14.3,19.7,34.2,29,50.3c3.3,5.7,9.4,9.3,16,9.3c6.6,0,12.7-3.5,16-9.3c9.3-16.1,20.8-36,29-50.3
			c6.6-11.5,6.6-25.7,0-37.2C420.3,583.7,408.8,563.8,399.5,547.7z M387.4,554.6c-0.8-1.4-2.3-2.3-3.9-2.3c-1.6,0-3.1,0.9-3.9,2.3
			c-9.3,16.2-20.8,36.1-29.1,50.3c-4.1,7.2-4.1,16,0,23.2c8.2,14.3,19.7,34.2,29,50.3c0.8,1.4,2.3,2.3,4,2.3s3.1-0.9,4-2.3
			c9.3-16.1,20.8-36,29-50.3c4.1-7.2,4.1-16,0-23.2L387.4,554.6z"/>
	</g>
	<g transform="matrix(0.5,0.866025,-0.866025,0.5,192,-110.851)">
		<path class="st2" d="M726.6-17.2c-3.3-5.7-9.4-9.2-16-9.2c-6.6,0-12.7,3.5-16,9.2c-9.3,16.2-20.8,36.1-29.1,50.3
			c-6.6,11.5-6.6,25.7,0,37.2c8.2,14.3,19.7,34.2,29,50.3c3.3,5.7,9.4,9.3,16,9.3c6.6,0,12.7-3.5,16-9.3c9.3-16.1,20.8-36,29-50.3
			c6.6-11.5,6.6-25.7,0-37.2C747.4,18.9,735.9-1,726.6-17.2z M714.5-10.2c-0.8-1.4-2.3-2.3-3.9-2.3c-1.6,0-3.1,0.9-3.9,2.3
			c-9.3,16.2-20.8,36.1-29.1,50.3c-4.1,7.2-4.1,16,0,23.2c8.2,14.3,19.7,34.2,29,50.3c0.8,1.4,2.3,2.3,4,2.3c1.6,0,3.1-0.9,4-2.3
			c9.3-16.1,20.8-36,29-50.3c4.1-7.2,4.1-16,0-23.2L714.5-10.2z"/>
	</g>
</g>
</svg>
