<?xml version="1.0" encoding="utf-8"?>
<!-- Generator: Adobe Illustrator 24.1.2, SVG Export Plug-In . SVG Version: 6.00 Build 0)  -->
<svg version="1.1" id="レイヤー_1" xmlns="http://www.w3.org/2000/svg" xmlns:xlink="http://www.w3.org/1999/xlink" x="0px"
	 y="0px" viewBox="0 0 512 512" style="enable-background:new 0 0 512 512;" xml:space="preserve">
<g>
	<path d="M305.1,196.2c-21.8-37.2-70.7-49.4-109.2-27.1c-10.2,5.9-18.7,13.7-25.2,22.6c3.5-2.9,7.2-5.6,11.3-8
		c35.7-20.7,81.1-9.4,101.3,25.1c20.2,34.5,7.6,79.2-28.1,99.9c-4.1,2.4-8.3,4.2-12.6,5.8c11-1.2,22-4.7,32.2-10.6
		C313.3,281.7,326.9,233.4,305.1,196.2z"/>
	<path d="M218.1,202.3c9.3,0,17.7,3.8,24.1,9.7c-8.1-7.9-19-12.7-31.2-12.7c-24.7,0-44.8,20.1-44.8,44.8s20.1,44.8,44.8,44.8
		c24.7,0,44.8-20.1,44.8-44.8c0-7.1-1.8-13.6-4.7-19.6c1.7,4.2,2.7,8.8,2.7,13.6c0,19.7-16,35.7-35.7,35.7
		c-19.7,0-35.7-16-35.7-35.7C182.4,218.3,198.4,202.3,218.1,202.3z"/>
	<path d="M391,275.7c-55,84.6-168.2,108.5-252.7,53.5c-9.6-6.3-18.4-13.4-26.4-21c14.6,22.9,34.1,43.2,58.3,58.9
		c91.2,59.3,213.2,33.5,272.6-57.7c59.3-91.2,33.5-213.2-57.7-272.6C360.8,21,334.3,11.4,307.5,7.3c10.3,4.2,20.3,9.4,30,15.6
		C422,78,446,191.1,391,275.7z"/>
	<path d="M510.2,228.2c-2.2,14.2-5.6,28.4-10.6,42.5c-43.6,123.2-178.8,187.6-302,144S10,235.8,53.6,112.6c5-14,11.3-27.2,18.5-39.7
		c-24.4,25.4-44,56-56.5,91.3C-31.5,297.1,38.1,442.9,170.9,490c132.8,47.1,278.6-22.5,325.7-155.3
		C509.1,299.4,513.2,263.2,510.2,228.2z"/>
	<path d="M80.8,124.2C127,54.1,221.3,34.6,291.5,80.8c70.2,46.2,89.6,140.5,43.5,210.6c-5.3,8-11.2,15.3-17.6,21.9
		c19.1-12.1,36.1-28.2,49.3-48.3c49.8-75.7,28.8-177.4-46.9-227.2C244-12,142.3,9,92.5,84.7c-13.2,20.1-21.3,42.1-24.9,64.4
		C71.3,140.6,75.6,132.3,80.8,124.2z"/>
	<path d="M330.2,180.5c-4-15.9-11.3-31.1-22.2-44.7C267,84.5,192.2,76.2,141,117.2c-51.2,41-59.5,115.7-18.5,166.9
		c10.9,13.6,24.2,24.1,38.8,31.5c-5.1-4.4-9.9-9.2-14.2-14.6c-38-47.5-30.3-116.7,17.2-154.7c47.5-38,116.7-30.3,154.7,17.2
		C323.3,168.8,327,174.5,330.2,180.5z"/>
</g>
</svg>
