<?xml version="1.0" encoding="utf-8"?>
<!-- Generator: Adobe Illustrator 24.1.2, SVG Export Plug-In . SVG Version: 6.00 Build 0)  -->
<svg version="1.1" id="レイヤー_1" xmlns="http://www.w3.org/2000/svg" xmlns:xlink="http://www.w3.org/1999/xlink" x="0px"
	 y="0px" viewBox="0 0 512 512" style="enable-background:new 0 0 512 512;" xml:space="preserve">
<style type="text/css">
	.st0{fill:url(#SVGID_1_);}
	.st1{fill:#FFFFFF;}
</style>
<linearGradient id="SVGID_1_" gradientUnits="userSpaceOnUse" x1="0" y1="513.2756" x2="512" y2="1.2756" gradientTransform="matrix(1 0 0 -1 0 513.2756)">
	<stop  offset="0" style="stop-color:#0066CC"/>
	<stop  offset="1" style="stop-color:#0060BF"/>
</linearGradient>
<path class="st0" d="M0,0h512v512H0V0z"/>
<g>
	<g>
		<path class="st1" d="M290.9,213.5c-15.5-26.5-50.3-35.1-77.7-19.3c-7.3,4.2-13.3,9.8-17.9,16.1c2.5-2.1,5.1-4,8-5.7
			c25.4-14.7,57.6-6.7,72,17.8s5.4,56.4-20,71c-2.9,1.7-5.9,3-8.9,4.1c7.8-0.9,15.6-3.3,22.9-7.5C296.8,274.3,306.4,240,290.9,213.5
			z"/>
		<path class="st1" d="M229,217.8c6.6,0,12.6,2.7,17.1,6.9c-5.7-5.6-13.5-9.1-22.2-9.1c-17.6,0-31.9,14.3-31.9,31.9
			s14.3,31.9,31.9,31.9s31.9-14.3,31.9-31.9c0-5-1.3-9.7-3.3-13.9c1.2,3,1.9,6.2,1.9,9.6c0,14-11.4,25.4-25.4,25.4
			s-25.4-11.4-25.4-25.4S215,217.8,229,217.8z"/>
		<path class="st1" d="M352,270c-39.1,60.1-119.6,77.2-179.7,38c-6.9-4.5-13.1-9.5-18.8-15c10.4,16.3,24.2,30.7,41.5,41.9
			c64.9,42.2,151.6,23.8,193.8-41c42.2-64.9,23.8-151.6-41-193.8c-17.2-11.2-36-18-55.1-20.9c7.3,3,14.4,6.7,21.3,11.1
			C374.1,129.4,391.1,209.9,352,270z"/>
		<path class="st1" d="M436.8,236.2c-1.6,10.1-4,20.2-7.5,30.2C398.2,354,302,399.8,214.5,368.8S81.1,241.6,112.1,154
			c3.5-10,8-19.4,13.1-28.2c-17.3,18-31.3,39.8-40.2,64.9c-33.5,94.5,16,198.1,110.4,231.6c94.5,33.5,198.2-16,231.6-110.4
			C436,286.8,438.9,261.1,436.8,236.2z"/>
		<path class="st1" d="M131.4,162.3c32.8-49.9,99.9-63.7,149.8-30.9s63.7,99.9,30.9,149.8c-3.7,5.7-8,10.9-12.5,15.6
			c13.6-8.6,25.6-20.1,35.1-34.4c35.4-53.8,20.5-126.2-33.3-161.6s-126.2-20.5-161.6,33.3c-9.4,14.3-15.2,29.9-17.7,45.8
			C124.6,173.9,127.7,168,131.4,162.3z"/>
		<path class="st1" d="M308.7,202.3c-2.9-11.3-8.1-22.1-15.8-31.8c-29.1-36.4-82.3-42.3-118.7-13.2S131.9,239.6,161,276
			c7.7,9.7,17.2,17.1,27.6,22.4c-3.6-3.1-7-6.5-10.1-10.4c-27-33.8-21.5-83,12.2-110c33.8-27,83-21.5,110,12.2
			C303.9,194,306.5,198.1,308.7,202.3z"/>
	</g>
</g>
</svg>
